<?xml version="1.0" encoding="utf-8"?>
<svg version="1.1" width="12px" height="12px" viewBox="520 400  12 12" xmlns:xlink="http://www.w3.org/1999/xlink" xmlns="http://www.w3.org/2000/svg">
  <path d="M 526 400  C 529.36 400  532 402.64  532 406  C 532 409.36  529.36 412  526 412  C 522.64 412  520 409.36  520 406  C 520 402.64  522.64 400  526 400  Z " fill-rule="nonzero" fill="#ffffff" stroke="none" />
  <path d="M 526 400.5  C 529.08 400.5  531.5 402.92  531.5 406  C 531.5 409.08  529.08 411.5  526 411.5  C 522.92 411.5  520.5 409.08  520.5 406  C 520.5 402.92  522.92 400.5  526 400.5  Z " stroke-width="1" stroke="#797979" fill="none" />
  <path d="M 526 409  C 524.32 409  523 407.68  523 406  C 523 404.32  524.32 403  526 403  C 527.68 403  529 404.32  529 406  C 529 407.68  527.68 409  526 409  " fill-rule="nonzero" fill="#797979" stroke="none" />
</svg>