<?xml version="1.0" encoding="utf-8"?>
<svg version="1.1" width="110px" height="70px" xmlns:xlink="http://www.w3.org/1999/xlink" xmlns="http://www.w3.org/2000/svg">
  <defs>
    <linearGradient gradientUnits="userSpaceOnUse" x1="330" y1="86" x2="330" y2="156" id="LinearGradient188">
      <stop id="Stop189" stop-color="#ffffff" offset="0" />
      <stop id="Stop190" stop-color="#f2f2f2" offset="0" />
      <stop id="Stop191" stop-color="#e4e4e4" offset="1" />
      <stop id="Stop192" stop-color="#ffffff" offset="1" />
    </linearGradient>
  </defs>
  <g transform="translate(-275 -86 )">
    <path d="M 285.5 155.5  L 384.5 155.5  L 384.5 96.5  L 379.5 96.5  L 379.5 91.5  L 374.5 91.5  L 374.5 86.5  L 275.5 86.5  L 275.5 145.5  L 280.5 145.5  L 280.5 150.5  L 285.5 150.5  L 285.5 155.5  Z " fill-rule="nonzero" fill="url(#LinearGradient188)" stroke="none" />
    <path d="M 285.5 155.5  L 384.5 155.5  L 384.5 96.5  L 379.5 96.5  L 379.5 91.5  L 374.5 91.5  L 374.5 86.5  L 275.5 86.5  L 275.5 145.5  L 280.5 145.5  L 280.5 150.5  L 285.5 150.5  L 285.5 155.5  Z " stroke-width="1" stroke="#797979" fill="none" />
    <path d="M 379.5 97  L 379.5 150.5  L 286 150.5  M 374.5 92  L 374.5 145.5  L 281 145.5  " stroke-width="1" stroke="#797979" fill="none" />
  </g>
</svg>