<?xml version="1.0" encoding="utf-8"?>
<svg version="1.1" width="20px" height="21px" viewBox="518 1261  20 21" xmlns:xlink="http://www.w3.org/1999/xlink" xmlns="http://www.w3.org/2000/svg">
  <path d="M 528 1268  A 3.5 3.5 0 0 0 524.5 1271.5A 3.5 3.5 0 0 0 528 1275A 3.5 3.5 0 0 0 531.5 1271.5A 3.5 3.5 0 0 0 528 1268Z M 528 1270  A 1.5 1.5 0 0 1 529.5 1271.5A 1.5 1.5 0 0 1 528 1273A 1.5 1.5 0 0 1 526.5 1271.5A 1.5 1.5 0 0 1 528 1270Z M 532.292893218813 1375.89289321881  L 528 1380.18578643763  L 523.707106781187 1375.89289321881  L 522.292893218813 1377.30710678119  L 527.292893218813 1382.30710678119  L 528 1383.01421356237  L 528.707106781187 1382.30710678119  L 533.707106781187 1377.30710678119  L 532.292893218813 1375.89289321881  Z " fill-rule="nonzero" fill="#999999" stroke="none" />
  <rect fill-rule="evenodd" fill="#999999" stroke="none" x="527" y="1274" width="2" height="107" />
  <path d="" stroke-width="2" stroke="#999999" fill="none" />
</svg>