<?xml version="1.0" encoding="utf-8"?>
<svg version="1.1" width="16px" height="16px" xmlns:xlink="http://www.w3.org/1999/xlink" xmlns="http://www.w3.org/2000/svg">
  <g transform="translate(-112 -1083 )">
    <path d="M 13.1875 6.78125  C 13.3125 6.65625  13.375 6.5  13.375 6.3125  C 13.375 6.11805555555549  13.3125 5.95833333333331  13.1875 5.83333333333331  L 12.2395833333333 4.89583333333331  C 12.1076388888888 4.76388888888886  11.9513888888888 4.69791666666669  11.7708333333333 4.69791666666669  C 11.5902777777778 4.69791666666669  11.4340277777778 4.76388888888886  11.3020833333333 4.89583333333331  L 7.05208333333333 9.13541666666669  L 4.69791666666667 6.78125  C 4.56597222222217 6.64930555555549  4.40972222222217 6.58333333333331  4.22916666666667 6.58333333333331  C 4.04861111111116 6.58333333333331  3.89236111111116 6.64930555555549  3.76041666666667 6.78125  L 2.8125 7.71875  C 2.6875 7.84375  2.625 8.00347222222217  2.625 8.19791666666669  C 2.625 8.38541666666669  2.6875 8.54166666666669  2.8125 8.66666666666669  L 6.58333333333333 12.4375  C 6.71527777777783 12.5694444444445  6.87152777777783 12.6354166666667  7.05208333333333 12.6354166666667  C 7.23958333333333 12.6354166666667  7.3993055555555 12.5694444444445  7.53125 12.4375  L 13.1875 6.78125  Z M 14.9270833333333 3.984375  C 15.6423611111112 5.21006944444451  16 6.54861111111114  16 8  C 16 9.45138888888886  15.6423611111112 10.7899305555555  14.9270833333333 12.015625  C 14.2118055555555 13.2413194444445  13.2413194444445 14.2118055555555  12.015625 14.9270833333333  C 10.7899305555555 15.6423611111111  9.45138888888884 16  8 16  C 6.54861111111116 16  5.2100694444445 15.6423611111111  3.984375 14.9270833333333  C 2.7586805555555 14.2118055555555  1.7881944444445 13.2413194444445  1.07291666666667 12.015625  C 0.357638888888843 10.7899305555555  0 9.45138888888886  0 8  C 0 6.54861111111114  0.357638888888843 5.21006944444451  1.07291666666667 3.984375  C 1.7881944444445 2.75868055555549  2.7586805555555 1.78819444444451  3.984375 1.07291666666669  C 5.2100694444445 0.357638888888857  6.54861111111116 0  8 0  C 9.45138888888884 0  10.7899305555555 0.357638888888857  12.015625 1.07291666666669  C 13.2413194444445 1.78819444444451  14.2118055555555 2.75868055555549  14.9270833333333 3.984375  Z " fill-rule="nonzero" fill="#333333" stroke="none" transform="matrix(1 0 0 1 112 1083 )" />
  </g>
</svg>