<?xml version="1.0" encoding="utf-8"?>
<svg version="1.1" width="16px" height="15px" xmlns:xlink="http://www.w3.org/1999/xlink" xmlns="http://www.w3.org/2000/svg">
  <g transform="translate(-117 -504 )">
    <path d="M 3.69230769230769 11.04  L 3.69230769230769 13.4933333333333  L 12.3076923076923 13.4933333333333  L 12.3076923076923 11.04  L 3.69230769230769 11.04  Z M 3.69230769230769 1.22666666666669  L 3.69230769230769 7.36000000000001  L 12.3076923076923 7.36000000000001  L 12.3076923076923 3.68000000000001  L 10.7692307692308 3.68000000000001  C 10.5128205128205 3.68000000000001  10.2948717948718 3.59055555555557  10.1153846153846 3.41166666666669  C 9.93589743589743 3.23277777777776  9.84615384615384 3.01555555555558  9.84615384615384 2.75999999999999  L 9.84615384615384 1.22666666666669  L 3.69230769230769 1.22666666666669  Z M 14.5865384615385 8.40458333333333  C 14.7083333333333 8.28319444444446  14.7692307692308 8.13944444444451  14.7692307692308 7.97333333333336  C 14.7692307692308 7.80722222222221  14.7083333333333 7.66347222222225  14.5865384615385 7.54208333333338  C 14.4647435897436 7.42069444444451  14.3205128205128 7.36000000000001  14.1538461538462 7.36000000000001  C 13.9871794871795 7.36000000000001  13.8429487179487 7.42069444444451  13.7211538461538 7.54208333333338  C 13.599358974359 7.66347222222225  13.5384615384615 7.80722222222221  13.5384615384615 7.97333333333336  C 13.5384615384615 8.13944444444451  13.599358974359 8.28319444444446  13.7211538461538 8.40458333333333  C 13.8429487179487 8.52597222222221  13.9871794871795 8.5866666666667  14.1538461538462 8.5866666666667  C 14.3205128205128 8.5866666666667  14.4647435897436 8.52597222222221  14.5865384615385 8.40458333333333  Z M 15.4567307692308 6.67479166666669  C 15.8189102564103 7.03576388888894  16 7.46861111111116  16 7.97333333333336  L 16 11.96  C 16 12.0430555555556  15.9695512820513 12.1149305555556  15.9086538461538 12.175625  C 15.8477564102564 12.2363194444445  15.775641025641 12.2666666666667  15.6923076923077 12.2666666666667  L 13.5384615384615 12.2666666666667  L 13.5384615384615 13.8000000000001  C 13.5384615384615 14.0555555555555  13.448717948718 14.2727777777778  13.2692307692308 14.4516666666667  C 13.0897435897436 14.6305555555556  12.8717948717949 14.72  12.6153846153846 14.72  L 3.38461538461539 14.72  C 3.12820512820512 14.72  2.91025641025641 14.6305555555556  2.73076923076923 14.4516666666667  C 2.55128205128206 14.2727777777778  2.46153846153847 14.0555555555555  2.46153846153847 13.8000000000001  L 2.46153846153847 12.2666666666667  L 0.307692307692307 12.2666666666667  C 0.224358974358978 12.2666666666667  0.152243589743591 12.2363194444445  0.0913461538461604 12.175625  C 0.0304487179487154 12.1149305555556  0 12.0430555555556  0 11.96  L 0 7.97333333333336  C 0 7.46861111111116  0.181089743589737 7.03576388888894  0.543269230769226 6.67479166666669  C 0.905448717948715 6.31381944444445  1.33974358974359 6.13333333333333  1.84615384615384 6.13333333333333  L 2.46153846153847 6.13333333333333  L 2.46153846153847 0.920000000000016  C 2.46153846153847 0.664444444444428  2.55128205128206 0.447222222222194  2.73076923076923 0.268333333333317  C 2.91025641025641 0.0894444444444389  3.12820512820512 0  3.38461538461539 0  L 9.84615384615384 0  C 10.1025641025641 0  10.3846153846154 0.0638888888888687  10.6923076923077 0.191666666666663  C 11 0.319444444444457  11.2435897435898 0.472777777777765  11.4230769230769 0.651666666666642  L 12.8846153846154 2.10833333333335  C 13.0641025641026 2.28722222222223  13.2179487179487 2.53000000000003  13.3461538461538 2.83666666666664  C 13.474358974359 3.14333333333332  13.5384615384615 3.42444444444448  13.5384615384615 3.68000000000001  L 13.5384615384615 6.13333333333333  L 14.1538461538462 6.13333333333333  C 14.6602564102564 6.13333333333333  15.0945512820513 6.31381944444445  15.4567307692308 6.67479166666669  Z " fill-rule="nonzero" fill="#666666" stroke="none" transform="matrix(1 0 0 1 117 504 )" />
  </g>
</svg>