<?xml version="1.0" encoding="utf-8"?>
<svg version="1.1" width="24px" height="19px" xmlns:xlink="http://www.w3.org/1999/xlink" xmlns="http://www.w3.org/2000/svg">
  <g transform="translate(-1182 -247 )">
    <path d="M 22.6607142857142 7.19284090909093  C 23.1696428571429 6.84715909090909  23.6160714285713 6.46159090909092  24 6.03613636363636  L 24 16.5927272727273  C 24 17.1777272727273  23.7901785714287 17.6785227272728  23.3705357142858 18.0951136363636  C 22.9508928571429 18.5117045454546  22.4464285714287 18.72  21.8571428571429 18.72  L 2.14285714285711 18.72  C 1.55357142857133 18.72  1.04910714285711 18.5117045454546  0.629464285714221 18.0951136363636  C 0.209821428571331 17.6785227272728  0 17.1777272727273  0 16.5927272727273  L 0 6.03613636363636  C 0.39285714285711 6.47045454545454  0.84375 6.85602272727274  1.35267857142867 7.19284090909093  C 4.58482142857133 9.37329545454546  6.80357142857133 10.9022727272728  8.00892857142867 11.7797727272728  C 8.51785714285711 12.1520454545455  8.93080357142867 12.4423295454546  9.24776785714289 12.650625  C 9.56473214285711 12.8589204545455  9.98660714285711 13.0716477272728  10.5133928571429 13.2888068181819  C 11.0401785714287 13.5059659090909  11.53125 13.6145454545455  11.9866071428571 13.6145454545455  L 12 13.6145454545455  L 12.0133928571429 13.6145454545455  C 12.46875 13.6145454545455  12.9598214285713 13.5059659090909  13.4866071428571 13.2888068181819  C 14.0133928571429 13.0716477272728  14.4352678571429 12.8589204545455  14.7522321428571 12.650625  C 15.0691964285713 12.4423295454546  15.4821428571429 12.1520454545455  15.9910714285713 11.7797727272728  C 17.5089285714287 10.6895454545455  19.7321428571429 9.16056818181821  22.6607142857142 7.19284090909093  Z M 23.3638392857142 0.624886363636364  C 23.7879464285713 1.04147727272726  24 1.54227272727272  24 2.12727272727273  C 24 2.82750000000001  23.78125 3.49670454545455  23.34375 4.13488636363638  C 22.90625 4.77306818181819  22.3616071428571 5.31818181818181  21.7098214285713 5.77022727272728  C 18.3526785714287 8.08363636363637  16.2633928571429 9.52397727272728  15.4419642857142 10.09125  C 15.3526785714287 10.1532954545455  15.1629464285713 10.2884659090909  14.8727678571429 10.4967613636364  C 14.5825892857142 10.7050568181818  14.3415178571429 10.8734659090909  14.1495535714287 11.0019886363636  C 13.9575892857142 11.1305113636364  13.7254464285713 11.2745454545455  13.453125 11.4340909090909  C 13.1808035714287 11.5936363636364  12.9241071428571 11.7132954545455  12.6830357142858 11.7930681818182  C 12.4419642857142 11.8728409090909  12.21875 11.9127272727273  12.0133928571429 11.9127272727273  L 12 11.9127272727273  L 11.9866071428571 11.9127272727273  C 11.78125 11.9127272727273  11.5580357142858 11.8728409090909  11.3169642857142 11.7930681818182  C 11.0758928571429 11.7132954545455  10.8191964285713 11.5936363636364  10.546875 11.4340909090909  C 10.2745535714287 11.2745454545455  10.0424107142858 11.1305113636364  9.85044642857133 11.0019886363636  C 9.65848214285711 10.8734659090909  9.41741071428578 10.7050568181818  9.12723214285711 10.4967613636364  C 8.83705357142867 10.2884659090909  8.64732142857133 10.1532954545455  8.55803571428578 10.09125  C 7.74553571428578 9.52397727272728  6.57589285714289 8.71517045454547  5.04910714285711 7.66482954545455  C 3.52232142857133 6.61448863636363  2.60714285714289 5.98295454545456  2.30357142857133 5.77022727272728  C 1.75 5.39795454545455  1.22767857142867 4.88607954545455  0.73660714285711 4.23460227272727  C 0.245535714285779 3.583125  0 2.97818181818181  0 2.41977272727274  C 0 1.72840909090908  0.18526785714289 1.15227272727273  0.555803571428669 0.691363636363633  C 0.926339285714221 0.230454545454535  1.45535714285711 0  2.14285714285711 0  L 21.8571428571429 0  C 22.4375 0  22.9397321428571 0.208295454545464  23.3638392857142 0.624886363636364  Z " fill-rule="nonzero" fill="#f2f2f2" stroke="none" transform="matrix(1 0 0 1 1182 247 )" />
  </g>
</svg>