<?xml version="1.0" encoding="utf-8"?>
<svg version="1.1" width="12px" height="12px" viewBox="597 478  12 12" xmlns:xlink="http://www.w3.org/1999/xlink" xmlns="http://www.w3.org/2000/svg">
  <path d="M 603 478  C 606.36 478  609 480.64  609 484  C 609 487.36  606.36 490  603 490  C 599.64 490  597 487.36  597 484  C 597 480.64  599.64 478  603 478  Z " fill-rule="nonzero" fill="#ffffff" stroke="none" />
  <path d="M 603 478.5  C 606.08 478.5  608.5 480.92  608.5 484  C 608.5 487.08  606.08 489.5  603 489.5  C 599.92 489.5  597.5 487.08  597.5 484  C 597.5 480.92  599.92 478.5  603 478.5  Z " stroke-width="1" stroke="#797979" fill="none" />
  <path d="M 603 487  C 601.32 487  600 485.68  600 484  C 600 482.32  601.32 481  603 481  C 604.68 481  606 482.32  606 484  C 606 485.68  604.68 487  603 487  " fill-rule="nonzero" fill="#797979" stroke="none" />
</svg>