<?xml version="1.0" encoding="utf-8"?>
<svg version="1.1" width="12px" height="12px" viewBox="684 478  12 12" xmlns:xlink="http://www.w3.org/1999/xlink" xmlns="http://www.w3.org/2000/svg">
  <path d="M 690 478  C 693.36 478  696 480.64  696 484  C 696 487.36  693.36 490  690 490  C 686.64 490  684 487.36  684 484  C 684 480.64  686.64 478  690 478  Z " fill-rule="nonzero" fill="#ffffff" stroke="none" />
  <path d="M 690 478.5  C 693.08 478.5  695.5 480.92  695.5 484  C 695.5 487.08  693.08 489.5  690 489.5  C 686.92 489.5  684.5 487.08  684.5 484  C 684.5 480.92  686.92 478.5  690 478.5  Z " stroke-width="1" stroke="#797979" fill="none" />
  <path d="M 690 487  C 688.32 487  687 485.68  687 484  C 687 482.32  688.32 481  690 481  C 691.68 481  693 482.32  693 484  C 693 485.68  691.68 487  690 487  " fill-rule="nonzero" fill="#797979" stroke="none" />
</svg>