<?xml version="1.0" encoding="utf-8"?>
<svg version="1.1" width="12px" height="12px" viewBox="300 478  12 12" xmlns:xlink="http://www.w3.org/1999/xlink" xmlns="http://www.w3.org/2000/svg">
  <path d="M 306 478  C 309.36 478  312 480.64  312 484  C 312 487.36  309.36 490  306 490  C 302.64 490  300 487.36  300 484  C 300 480.64  302.64 478  306 478  Z " fill-rule="nonzero" fill="#ffffff" stroke="none" />
  <path d="M 306 478.5  C 309.08 478.5  311.5 480.92  311.5 484  C 311.5 487.08  309.08 489.5  306 489.5  C 302.92 489.5  300.5 487.08  300.5 484  C 300.5 480.92  302.92 478.5  306 478.5  Z " stroke-width="1" stroke="#797979" fill="none" />
  <path d="M 306 487  C 304.32 487  303 485.68  303 484  C 303 482.32  304.32 481  306 481  C 307.68 481  309 482.32  309 484  C 309 485.68  307.68 487  306 487  " fill-rule="nonzero" fill="#797979" stroke="none" />
</svg>