<?xml version="1.0" encoding="utf-8"?>
<svg version="1.1" width="12px" height="12px" viewBox="649 759  12 12" xmlns:xlink="http://www.w3.org/1999/xlink" xmlns="http://www.w3.org/2000/svg">
  <path d="M 655 759  C 658.36 759  661 761.64  661 765  C 661 768.36  658.36 771  655 771  C 651.64 771  649 768.36  649 765  C 649 761.64  651.64 759  655 759  Z " fill-rule="nonzero" fill="#ffffff" stroke="none" />
  <path d="M 655 759.5  C 658.08 759.5  660.5 761.92  660.5 765  C 660.5 768.08  658.08 770.5  655 770.5  C 651.92 770.5  649.5 768.08  649.5 765  C 649.5 761.92  651.92 759.5  655 759.5  Z " stroke-width="1" stroke="#797979" fill="none" />
  <path d="M 655 768  C 653.32 768  652 766.68  652 765  C 652 763.32  653.32 762  655 762  C 656.68 762  658 763.32  658 765  C 658 766.68  656.68 768  655 768  " fill-rule="nonzero" fill="#797979" stroke="none" />
</svg>