<?xml version="1.0" encoding="utf-8"?>
<svg version="1.1" width="8px" height="257px" viewBox="907 1222  8 257" xmlns:xlink="http://www.w3.org/1999/xlink" xmlns="http://www.w3.org/2000/svg">
  <path d="M 762.5 1471.5  A 3.5 3.5 0 0 0 759 1475A 3.5 3.5 0 0 0 762.5 1478.5A 3.5 3.5 0 0 0 766 1475A 3.5 3.5 0 0 0 762.5 1471.5Z M 762.5 1473.5  A 1.5 1.5 0 0 1 764 1475A 1.5 1.5 0 0 1 762.5 1476.5A 1.5 1.5 0 0 1 761 1475A 1.5 1.5 0 0 1 762.5 1473.5Z M 906.707106781187 1229.10710678119  L 911 1224.81421356237  L 915.292893218813 1229.10710678119  L 916.707106781187 1227.69289321881  L 911.707106781187 1222.69289321881  L 911 1221.98578643763  L 910.292893218813 1222.69289321881  L 905.292893218813 1227.69289321881  L 906.707106781187 1229.10710678119  Z " fill-rule="nonzero" fill="#999999" stroke="none" />
  <path d="M 765 1475  L 906 1475  A 5 5 0 0 0 911 1470L 911 1224  " stroke-width="2" stroke="#999999" fill="none" />
</svg>