<?xml version="1.0" encoding="utf-8"?>
<svg version="1.1" width="22px" height="22px" xmlns:xlink="http://www.w3.org/1999/xlink" xmlns="http://www.w3.org/2000/svg">
  <g transform="translate(-221 -849 )">
    <path d="M 17.14453125 12.5611979166666  C 17.3259548611111 12.3797743055555  17.4166666666667 12.1649305555555  17.4166666666667 11.9166666666666  L 17.4166666666667 10.0833333333334  C 17.4166666666667 9.83506944444446  17.3259548611111 9.62022569444446  17.14453125 9.43880208333337  C 16.9631076388889 9.25737847222229  16.7482638888889 9.16666666666663  16.5 9.16666666666663  L 12.8333333333333 9.16666666666663  L 12.8333333333333 5.5  C 12.8333333333333 5.25173611111109  12.7426215277778 5.03689236111109  12.5611979166667 4.85546875  C 12.3797743055556 4.67404513888891  12.1649305555556 4.58333333333337  11.9166666666667 4.58333333333337  L 10.0833333333333 4.58333333333337  C 9.83506944444443 4.58333333333337  9.62022569444443 4.67404513888891  9.43880208333334 4.85546875  C 9.25737847222223 5.03689236111109  9.16666666666666 5.25173611111109  9.16666666666666 5.5  L 9.16666666666666 9.16666666666663  L 5.5 9.16666666666663  C 5.25173611111111 9.16666666666663  5.03689236111111 9.25737847222229  4.85546875 9.43880208333337  C 4.67404513888889 9.62022569444446  4.58333333333334 9.83506944444446  4.58333333333334 10.0833333333334  L 4.58333333333334 11.9166666666666  C 4.58333333333334 12.1649305555555  4.67404513888889 12.3797743055555  4.85546875 12.5611979166666  C 5.03689236111111 12.7426215277777  5.25173611111111 12.8333333333334  5.5 12.8333333333334  L 9.16666666666666 12.8333333333334  L 9.16666666666666 16.5  C 9.16666666666666 16.7482638888889  9.25737847222223 16.9631076388889  9.43880208333334 17.14453125  C 9.62022569444443 17.3259548611111  9.83506944444443 17.4166666666666  10.0833333333333 17.4166666666666  L 11.9166666666667 17.4166666666666  C 12.1649305555556 17.4166666666666  12.3797743055556 17.3259548611111  12.5611979166667 17.14453125  C 12.7426215277778 16.9631076388889  12.8333333333333 16.7482638888889  12.8333333333333 16.5  L 12.8333333333333 12.8333333333334  L 16.5 12.8333333333334  C 16.7482638888889 12.8333333333334  16.9631076388889 12.7426215277777  17.14453125 12.5611979166666  Z M 20.5247395833333 5.478515625  C 21.5082465277778 7.16384548611109  22 9.00434027777771  22 11  C 22 12.9956597222223  21.5082465277778 14.8361545138889  20.5247395833333 16.521484375  C 19.5412326388889 18.2068142361111  18.2068142361111 19.5412326388889  16.521484375 20.5247395833334  C 14.8361545138889 21.5082465277777  12.9956597222222 22  11 22  C 9.00434027777777 22  7.16384548611111 21.5082465277777  5.478515625 20.5247395833334  C 3.79318576388889 19.5412326388889  2.45876736111111 18.2068142361111  1.47526041666666 16.521484375  C 0.491753472222229 14.8361545138889  0 12.9956597222223  0 11  C 0 9.00434027777771  0.491753472222229 7.16384548611109  1.47526041666666 5.478515625  C 2.45876736111111 3.79318576388891  3.79318576388889 2.45876736111109  5.478515625 1.47526041666663  C 7.16384548611111 0.491753472222285  9.00434027777777 0  11 0  C 12.9956597222222 0  14.8361545138889 0.491753472222285  16.521484375 1.47526041666663  C 18.2068142361111 2.45876736111109  19.5412326388889 3.79318576388891  20.5247395833333 5.478515625  Z " fill-rule="nonzero" fill="#3399ff" stroke="none" transform="matrix(1 0 0 1 221 849 )" />
  </g>
</svg>