<?xml version="1.0" encoding="utf-8"?>
<svg version="1.1" width="24px" height="20px" xmlns:xlink="http://www.w3.org/1999/xlink" xmlns="http://www.w3.org/2000/svg">
  <g transform="translate(-407 -850 )">
    <path d="M 7.05882352941177 14.1669642857142  L 7.05882352941177 17.9228571428571  L 11.2941176470588 15.8142857142857  L 11.2941176470588 12.3658928571429  L 7.05882352941177 14.1669642857142  Z M 1.89705882352941 11.0370535714285  L 6.35294117647059 12.9369642857142  L 10.8088235294118 11.0370535714285  L 6.35294117647059 9.13714285714286  L 1.89705882352941 11.0370535714285  Z M 18.3529411764706 14.1669642857142  L 18.3529411764706 17.9228571428571  L 22.5882352941177 15.8142857142857  L 22.5882352941177 12.3658928571429  L 18.3529411764706 14.1669642857142  Z M 13.1911764705882 11.0370535714285  L 17.6470588235294 12.9369642857142  L 22.1029411764706 11.0370535714285  L 17.6470588235294 9.13714285714286  L 13.1911764705882 11.0370535714285  Z M 12.7058823529412 6.78696428571425  L 12.7058823529412 9.71919642857142  L 16.9411764705882 7.90714285714284  L 16.9411764705882 4.98589285714286  L 12.7058823529412 6.78696428571425  Z M 7.13602941176471 3.48133928571428  L 12 5.55696428571423  L 16.8639705882353 3.48133928571428  L 12 1.40571428571423  L 7.13602941176471 3.48133928571428  Z M 23.7683823529412 10.4769642857143  C 23.9227941176471 10.71125  24 10.9675  24 11.2457142857143  L 24 15.8142857142857  C 24 16.0778571428571  23.9301470588235 16.323125  23.7904411764706 16.5500892857142  C 23.6507352941177 16.7770535714285  23.4595588235294 16.9491071428571  23.2169117647059 17.06625  L 18.2757352941177 19.52625  C 18.0919117647059 19.62875  17.8823529411765 19.68  17.6470588235294 19.68  C 17.4117647058823 19.68  17.2022058823529 19.62875  17.0183823529412 19.52625  L 12.0772058823529 17.06625  C 12.0404411764706 17.0516071428571  12.014705882353 17.0369642857142  12 17.0223214285713  C 11.9852941176471 17.0369642857142  11.9595588235294 17.0516071428571  11.9227941176471 17.06625  L 6.98161764705883 19.52625  C 6.79779411764706 19.62875  6.58823529411765 19.68  6.35294117647059 19.68  C 6.11764705882354 19.68  5.90808823529412 19.62875  5.72426470588235 19.52625  L 0.783088235294116 17.06625  C 0.540441176470594 16.9491071428571  0.349264705882348 16.7770535714285  0.209558823529406 16.5500892857142  C 0.0698529411764639 16.323125  0 16.0778571428571  0 15.8142857142857  L 0 11.2457142857143  C 0 10.9675  0.079044117647058 10.71125  0.237132352941174 10.4769642857143  C 0.39522058823529 10.2426785714285  0.602941176470594 10.0669642857142  0.860294117647058 9.94982142857145  L 5.64705882352941 7.90714285714284  L 5.64705882352941 3.51428571428573  C 5.64705882352941 3.23607142857145  5.72610294117646 2.97982142857143  5.88419117647059 2.74553571428567  C 6.04227941176471 2.51125000000002  6.25 2.3355357142857  6.50735294117646 2.21839285714282  L 11.4485294117647 0.109821428571422  C 11.6176470588235 0.0366071428571786  11.8014705882353 0  12 0  C 12.1985294117647 0  12.3823529411765 0.0366071428571786  12.5514705882353 0.109821428571422  L 17.4926470588235 2.21839285714282  C 17.75 2.3355357142857  17.9577205882353 2.51125000000002  18.1158088235294 2.74553571428567  C 18.2738970588235 2.97982142857143  18.3529411764706 3.23607142857145  18.3529411764706 3.51428571428573  L 18.3529411764706 7.90714285714284  L 23.1397058823529 9.94982142857145  C 23.4044117647059 10.0669642857142  23.6139705882353 10.2426785714285  23.7683823529412 10.4769642857143  Z " fill-rule="nonzero" fill="#666666" stroke="none" transform="matrix(1 0 0 1 407 850 )" />
  </g>
</svg>