<?xml version="1.0" encoding="utf-8"?>
<svg version="1.1" width="16px" height="16px" xmlns:xlink="http://www.w3.org/1999/xlink" xmlns="http://www.w3.org/2000/svg">
  <g transform="translate(-111 -606 )">
    <path d="M 12.3958333333334 12.3958333333334  C 13.613425925926 11.1782407407408  14.2222222222222 9.71296296296293  14.2222222222222 8  C 14.2222222222222 6.28703703703707  13.613425925926 4.82175925925924  12.3958333333334 3.60416666666663  C 11.1782407407408 2.38657407407402  9.71296296296293 1.77777777777783  8 1.77777777777783  C 6.28703703703707 1.77777777777783  4.82175925925924 2.38657407407402  3.60416666666663 3.60416666666663  C 2.38657407407402 4.82175925925924  1.77777777777783 6.28703703703707  1.77777777777783 8  C 1.77777777777783 9.71296296296293  2.38657407407402 11.1782407407408  3.60416666666663 12.3958333333334  C 4.82175925925924 13.613425925926  6.28703703703707 14.2222222222222  8 14.2222222222222  C 9.71296296296293 14.2222222222222  11.1782407407408 13.613425925926  12.3958333333334 12.3958333333334  Z M 15.3680555555555 4.89583333333337  C 15.7893518518518 5.88194444444446  16 6.91666666666663  16 8  C 16 9.08333333333337  15.7893518518518 10.1180555555555  15.3680555555555 11.1041666666666  C 14.9467592592592 12.0902777777778  14.3773148148148 12.9421296296297  13.6597222222222 13.6597222222222  C 12.9421296296297 14.3773148148148  12.0902777777778 14.9467592592592  11.1041666666666 15.3680555555555  C 10.1180555555555 15.7893518518518  9.08333333333337 16  8 16  C 6.91666666666663 16  5.88194444444446 15.7893518518518  4.89583333333337 15.3680555555555  C 3.90972222222217 14.9467592592592  3.05787037037032 14.3773148148148  2.34027777777783 13.6597222222222  C 1.62268518518522 12.9421296296297  1.05324074074076 12.0902777777778  0.631944444444457 11.1041666666666  C 0.210648148148152 10.1180555555555  0 9.08333333333337  0 8  C 0 6.91666666666663  0.210648148148152 5.88194444444446  0.631944444444457 4.89583333333337  C 1.05324074074076 3.90972222222217  1.62268518518522 3.05787037037032  2.34027777777783 2.34027777777783  C 3.05787037037032 1.62268518518522  3.90972222222217 1.05324074074076  4.89583333333337 0.631944444444457  C 5.88194444444446 0.210648148148152  6.91666666666663 0  8 0  C 9.08333333333337 0  10.1180555555555 0.210648148148152  11.1041666666666 0.631944444444457  C 12.0902777777778 1.05324074074076  12.9421296296297 1.62268518518522  13.6597222222222 2.34027777777783  C 14.3773148148148 3.05787037037032  14.9467592592592 3.90972222222217  15.3680555555555 4.89583333333337  Z " fill-rule="nonzero" fill="#333333" stroke="none" transform="matrix(1 0 0 1 111 606 )" />
  </g>
</svg>