<?xml version="1.0" encoding="utf-8"?>
<svg version="1.1" width="12px" height="12px" viewBox="392 1043  12 12" xmlns:xlink="http://www.w3.org/1999/xlink" xmlns="http://www.w3.org/2000/svg">
  <path d="M 398 1043  C 401.36 1043  404 1045.64  404 1049  C 404 1052.36  401.36 1055  398 1055  C 394.64 1055  392 1052.36  392 1049  C 392 1045.64  394.64 1043  398 1043  Z " fill-rule="nonzero" fill="#ffffff" stroke="none" />
  <path d="M 398 1043.5  C 401.08 1043.5  403.5 1045.92  403.5 1049  C 403.5 1052.08  401.08 1054.5  398 1054.5  C 394.92 1054.5  392.5 1052.08  392.5 1049  C 392.5 1045.92  394.92 1043.5  398 1043.5  Z " stroke-width="1" stroke="#797979" fill="none" />
  <path d="M 398 1052  C 396.32 1052  395 1050.68  395 1049  C 395 1047.32  396.32 1046  398 1046  C 399.68 1046  401 1047.32  401 1049  C 401 1050.68  399.68 1052  398 1052  " fill-rule="nonzero" fill="#797979" stroke="none" />
</svg>