<?xml version="1.0" encoding="utf-8"?>
<svg version="1.1" width="12px" height="12px" viewBox="530 1043  12 12" xmlns:xlink="http://www.w3.org/1999/xlink" xmlns="http://www.w3.org/2000/svg">
  <path d="M 536 1043  C 539.36 1043  542 1045.64  542 1049  C 542 1052.36  539.36 1055  536 1055  C 532.64 1055  530 1052.36  530 1049  C 530 1045.64  532.64 1043  536 1043  Z " fill-rule="nonzero" fill="#ffffff" stroke="none" />
  <path d="M 536 1043.5  C 539.08 1043.5  541.5 1045.92  541.5 1049  C 541.5 1052.08  539.08 1054.5  536 1054.5  C 532.92 1054.5  530.5 1052.08  530.5 1049  C 530.5 1045.92  532.92 1043.5  536 1043.5  Z " stroke-width="1" stroke="#797979" fill="none" />
  <path d="M 536 1052  C 534.32 1052  533 1050.68  533 1049  C 533 1047.32  534.32 1046  536 1046  C 537.68 1046  539 1047.32  539 1049  C 539 1050.68  537.68 1052  536 1052  " fill-rule="nonzero" fill="#797979" stroke="none" />
</svg>