<?xml version="1.0" encoding="utf-8"?>
<svg version="1.1" width="12px" height="12px" viewBox="600 1043  12 12" xmlns:xlink="http://www.w3.org/1999/xlink" xmlns="http://www.w3.org/2000/svg">
  <path d="M 606 1043  C 609.36 1043  612 1045.64  612 1049  C 612 1052.36  609.36 1055  606 1055  C 602.64 1055  600 1052.36  600 1049  C 600 1045.64  602.64 1043  606 1043  Z " fill-rule="nonzero" fill="#ffffff" stroke="none" />
  <path d="M 606 1043.5  C 609.08 1043.5  611.5 1045.92  611.5 1049  C 611.5 1052.08  609.08 1054.5  606 1054.5  C 602.92 1054.5  600.5 1052.08  600.5 1049  C 600.5 1045.92  602.92 1043.5  606 1043.5  Z " stroke-width="1" stroke="#797979" fill="none" />
  <path d="M 606 1052  C 604.32 1052  603 1050.68  603 1049  C 603 1047.32  604.32 1046  606 1046  C 607.68 1046  609 1047.32  609 1049  C 609 1050.68  607.68 1052  606 1052  " fill-rule="nonzero" fill="#797979" stroke="none" />
</svg>