<?xml version="1.0" encoding="utf-8"?>
<svg version="1.1" width="110px" height="70px" xmlns:xlink="http://www.w3.org/1999/xlink" xmlns="http://www.w3.org/2000/svg">
  <defs>
    <linearGradient gradientUnits="userSpaceOnUse" x1="434" y1="72" x2="434" y2="142" id="LinearGradient15">
      <stop id="Stop16" stop-color="#ffffff" offset="0" />
      <stop id="Stop17" stop-color="#f2f2f2" offset="0" />
      <stop id="Stop18" stop-color="#e4e4e4" offset="1" />
      <stop id="Stop19" stop-color="#ffffff" offset="1" />
    </linearGradient>
  </defs>
  <g transform="translate(-379 -72 )">
    <path d="M 389.5 141.5  L 488.5 141.5  L 488.5 82.5  L 483.5 82.5  L 483.5 77.5  L 478.5 77.5  L 478.5 72.5  L 379.5 72.5  L 379.5 131.5  L 384.5 131.5  L 384.5 136.5  L 389.5 136.5  L 389.5 141.5  Z " fill-rule="nonzero" fill="url(#LinearGradient15)" stroke="none" />
    <path d="M 389.5 141.5  L 488.5 141.5  L 488.5 82.5  L 483.5 82.5  L 483.5 77.5  L 478.5 77.5  L 478.5 72.5  L 379.5 72.5  L 379.5 131.5  L 384.5 131.5  L 384.5 136.5  L 389.5 136.5  L 389.5 141.5  Z " stroke-width="1" stroke="#9933ff" fill="none" />
    <path d="M 483.5 83  L 483.5 136.5  L 390 136.5  M 478.5 78  L 478.5 131.5  L 385 131.5  " stroke-width="1" stroke="#9933ff" fill="none" />
  </g>
</svg>