<?xml version="1.0" encoding="utf-8"?>
<svg version="1.1" width="110px" height="70px" xmlns:xlink="http://www.w3.org/1999/xlink" xmlns="http://www.w3.org/2000/svg">
  <defs>
    <linearGradient gradientUnits="userSpaceOnUse" x1="609" y1="1266" x2="609" y2="1336" id="LinearGradient35">
      <stop id="Stop36" stop-color="#ffffff" offset="0" />
      <stop id="Stop37" stop-color="#f2f2f2" offset="0" />
      <stop id="Stop38" stop-color="#e4e4e4" offset="1" />
      <stop id="Stop39" stop-color="#ffffff" offset="1" />
    </linearGradient>
  </defs>
  <g transform="translate(-554 -1266 )">
    <path d="M 564.5 1335.5  L 663.5 1335.5  L 663.5 1276.5  L 658.5 1276.5  L 658.5 1271.5  L 653.5 1271.5  L 653.5 1266.5  L 554.5 1266.5  L 554.5 1325.5  L 559.5 1325.5  L 559.5 1330.5  L 564.5 1330.5  L 564.5 1335.5  Z " fill-rule="nonzero" fill="url(#LinearGradient35)" stroke="none" />
    <path d="M 564.5 1335.5  L 663.5 1335.5  L 663.5 1276.5  L 658.5 1276.5  L 658.5 1271.5  L 653.5 1271.5  L 653.5 1266.5  L 554.5 1266.5  L 554.5 1325.5  L 559.5 1325.5  L 559.5 1330.5  L 564.5 1330.5  L 564.5 1335.5  Z " stroke-width="1" stroke="#ff9933" fill="none" />
    <path d="M 658.5 1277  L 658.5 1330.5  L 565 1330.5  M 653.5 1272  L 653.5 1325.5  L 560 1325.5  " stroke-width="1" stroke="#ff9933" fill="none" />
  </g>
</svg>