<?xml version="1.0" encoding="utf-8"?>
<svg version="1.1" width="110px" height="70px" xmlns:xlink="http://www.w3.org/1999/xlink" xmlns="http://www.w3.org/2000/svg">
  <defs>
    <linearGradient gradientUnits="userSpaceOnUse" x1="1070" y1="2863" x2="1070" y2="2933" id="LinearGradient72">
      <stop id="Stop73" stop-color="#ffffff" offset="0" />
      <stop id="Stop74" stop-color="#f2f2f2" offset="0" />
      <stop id="Stop75" stop-color="#e4e4e4" offset="1" />
      <stop id="Stop76" stop-color="#ffffff" offset="1" />
    </linearGradient>
  </defs>
  <g transform="translate(-1015 -2863 )">
    <path d="M 1026.5 2931.5  L 1123.5 2931.5  L 1123.5 2874.5  L 1118.5 2874.5  L 1118.5 2869.5  L 1113.5 2869.5  L 1113.5 2864.5  L 1016.5 2864.5  L 1016.5 2921.5  L 1021.5 2921.5  L 1021.5 2926.5  L 1026.5 2926.5  L 1026.5 2931.5  Z " fill-rule="nonzero" fill="url(#LinearGradient72)" stroke="none" />
    <path d="M 1026 2932  L 1124 2932  L 1124 2874  L 1119 2874  L 1119 2869  L 1114 2869  L 1114 2864  L 1016 2864  L 1016 2922  L 1021 2922  L 1021 2927  L 1026 2927  L 1026 2932  Z " stroke-width="2" stroke="#663333" fill="none" />
    <path d="M 1119 2875  L 1119 2927  L 1027 2927  M 1114 2870  L 1114 2922  L 1022 2922  " stroke-width="2" stroke="#663333" fill="none" />
  </g>
</svg>