<?xml version="1.0" encoding="utf-8"?>
<svg version="1.1" width="110px" height="70px" xmlns:xlink="http://www.w3.org/1999/xlink" xmlns="http://www.w3.org/2000/svg">
  <defs>
    <linearGradient gradientUnits="userSpaceOnUse" x1="609" y1="2074" x2="609" y2="2144" id="LinearGradient82">
      <stop id="Stop83" stop-color="#ffffff" offset="0" />
      <stop id="Stop84" stop-color="#f2f2f2" offset="0" />
      <stop id="Stop85" stop-color="#e4e4e4" offset="1" />
      <stop id="Stop86" stop-color="#ffffff" offset="1" />
    </linearGradient>
  </defs>
  <g transform="translate(-554 -2074 )">
    <path d="M 564.5 2143.5  L 663.5 2143.5  L 663.5 2084.5  L 658.5 2084.5  L 658.5 2079.5  L 653.5 2079.5  L 653.5 2074.5  L 554.5 2074.5  L 554.5 2133.5  L 559.5 2133.5  L 559.5 2138.5  L 564.5 2138.5  L 564.5 2143.5  Z " fill-rule="nonzero" fill="url(#LinearGradient82)" stroke="none" />
    <path d="M 564.5 2143.5  L 663.5 2143.5  L 663.5 2084.5  L 658.5 2084.5  L 658.5 2079.5  L 653.5 2079.5  L 653.5 2074.5  L 554.5 2074.5  L 554.5 2133.5  L 559.5 2133.5  L 559.5 2138.5  L 564.5 2138.5  L 564.5 2143.5  Z " stroke-width="1" stroke="#cc99ff" fill="none" />
    <path d="M 658.5 2085  L 658.5 2138.5  L 565 2138.5  M 653.5 2080  L 653.5 2133.5  L 560 2133.5  " stroke-width="1" stroke="#cc99ff" fill="none" />
  </g>
</svg>