<?xml version="1.0" encoding="utf-8"?>
<svg version="1.1" width="110px" height="70px" xmlns:xlink="http://www.w3.org/1999/xlink" xmlns="http://www.w3.org/2000/svg">
  <defs>
    <linearGradient gradientUnits="userSpaceOnUse" x1="544" y1="72" x2="544" y2="142" id="LinearGradient77">
      <stop id="Stop78" stop-color="#ffffff" offset="0" />
      <stop id="Stop79" stop-color="#f2f2f2" offset="0" />
      <stop id="Stop80" stop-color="#e4e4e4" offset="1" />
      <stop id="Stop81" stop-color="#ffffff" offset="1" />
    </linearGradient>
  </defs>
  <g transform="translate(-489 -72 )">
    <path d="M 499.5 141.5  L 598.5 141.5  L 598.5 82.5  L 593.5 82.5  L 593.5 77.5  L 588.5 77.5  L 588.5 72.5  L 489.5 72.5  L 489.5 131.5  L 494.5 131.5  L 494.5 136.5  L 499.5 136.5  L 499.5 141.5  Z " fill-rule="nonzero" fill="url(#LinearGradient77)" stroke="none" />
    <path d="M 499.5 141.5  L 598.5 141.5  L 598.5 82.5  L 593.5 82.5  L 593.5 77.5  L 588.5 77.5  L 588.5 72.5  L 489.5 72.5  L 489.5 131.5  L 494.5 131.5  L 494.5 136.5  L 499.5 136.5  L 499.5 141.5  Z " stroke-width="1" stroke="#336699" fill="none" />
    <path d="M 593.5 83  L 593.5 136.5  L 500 136.5  M 588.5 78  L 588.5 131.5  L 495 131.5  " stroke-width="1" stroke="#336699" fill="none" />
  </g>
</svg>