<?xml version="1.0" encoding="utf-8"?>
<svg version="1.1" width="110px" height="70px" xmlns:xlink="http://www.w3.org/1999/xlink" xmlns="http://www.w3.org/2000/svg">
  <defs>
    <linearGradient gradientUnits="userSpaceOnUse" x1="609" y1="2706" x2="609" y2="2776" id="LinearGradient141">
      <stop id="Stop142" stop-color="#ffffff" offset="0" />
      <stop id="Stop143" stop-color="#f2f2f2" offset="0" />
      <stop id="Stop144" stop-color="#e4e4e4" offset="1" />
      <stop id="Stop145" stop-color="#ffffff" offset="1" />
    </linearGradient>
  </defs>
  <g transform="translate(-554 -2706 )">
    <path d="M 565.5 2774.5  L 662.5 2774.5  L 662.5 2717.5  L 657.5 2717.5  L 657.5 2712.5  L 652.5 2712.5  L 652.5 2707.5  L 555.5 2707.5  L 555.5 2764.5  L 560.5 2764.5  L 560.5 2769.5  L 565.5 2769.5  L 565.5 2774.5  Z " fill-rule="nonzero" fill="url(#LinearGradient141)" stroke="none" />
    <path d="M 565 2775  L 663 2775  L 663 2717  L 658 2717  L 658 2712  L 653 2712  L 653 2707  L 555 2707  L 555 2765  L 560 2765  L 560 2770  L 565 2770  L 565 2775  Z " stroke-width="2" stroke="#cc99ff" fill="none" />
    <path d="M 658 2718  L 658 2770  L 566 2770  M 653 2713  L 653 2765  L 561 2765  " stroke-width="2" stroke="#cc99ff" fill="none" />
  </g>
</svg>