<?xml version="1.0" encoding="utf-8"?>
<svg version="1.1" width="12px" height="12px" viewBox="254 791  12 12" xmlns:xlink="http://www.w3.org/1999/xlink" xmlns="http://www.w3.org/2000/svg">
  <path d="M 260 791  C 263.36 791  266 793.64  266 797  C 266 800.36  263.36 803  260 803  C 256.64 803  254 800.36  254 797  C 254 793.64  256.64 791  260 791  Z " fill-rule="nonzero" fill="#ffffff" stroke="none" />
  <path d="M 260 791.5  C 263.08 791.5  265.5 793.92  265.5 797  C 265.5 800.08  263.08 802.5  260 802.5  C 256.92 802.5  254.5 800.08  254.5 797  C 254.5 793.92  256.92 791.5  260 791.5  Z " stroke-width="1" stroke="#797979" fill="none" />
  <path d="M 260 800  C 258.32 800  257 798.68  257 797  C 257 795.32  258.32 794  260 794  C 261.68 794  263 795.32  263 797  C 263 798.68  261.68 800  260 800  " fill-rule="nonzero" fill="#797979" stroke="none" />
</svg>