<?xml version="1.0" encoding="utf-8"?>
<svg version="1.1" width="12px" height="12px" viewBox="428 922  12 12" xmlns:xlink="http://www.w3.org/1999/xlink" xmlns="http://www.w3.org/2000/svg">
  <path d="M 434 922  C 437.36 922  440 924.64  440 928  C 440 931.36  437.36 934  434 934  C 430.64 934  428 931.36  428 928  C 428 924.64  430.64 922  434 922  Z " fill-rule="nonzero" fill="#ffffff" stroke="none" />
  <path d="M 434 922.5  C 437.08 922.5  439.5 924.92  439.5 928  C 439.5 931.08  437.08 933.5  434 933.5  C 430.92 933.5  428.5 931.08  428.5 928  C 428.5 924.92  430.92 922.5  434 922.5  Z " stroke-width="1" stroke="#797979" fill="none" />
  <path d="M 434 931  C 432.32 931  431 929.68  431 928  C 431 926.32  432.32 925  434 925  C 435.68 925  437 926.32  437 928  C 437 929.68  435.68 931  434 931  " fill-rule="nonzero" fill="#797979" stroke="none" />
</svg>