<?xml version="1.0" encoding="utf-8"?>
<svg version="1.1" width="12px" height="12px" viewBox="591 956  12 12" xmlns:xlink="http://www.w3.org/1999/xlink" xmlns="http://www.w3.org/2000/svg">
  <path d="M 597 956  C 600.36 956  603 958.64  603 962  C 603 965.36  600.36 968  597 968  C 593.64 968  591 965.36  591 962  C 591 958.64  593.64 956  597 956  Z " fill-rule="nonzero" fill="#ffffff" stroke="none" />
  <path d="M 597 956.5  C 600.08 956.5  602.5 958.92  602.5 962  C 602.5 965.08  600.08 967.5  597 967.5  C 593.92 967.5  591.5 965.08  591.5 962  C 591.5 958.92  593.92 956.5  597 956.5  Z " stroke-width="1" stroke="#797979" fill="none" />
  <path d="M 597 965  C 595.32 965  594 963.68  594 962  C 594 960.32  595.32 959  597 959  C 598.68 959  600 960.32  600 962  C 600 963.68  598.68 965  597 965  " fill-rule="nonzero" fill="#797979" stroke="none" />
</svg>