<?xml version="1.0" encoding="utf-8"?>
<svg version="1.1" width="12px" height="12px" viewBox="428 736  12 12" xmlns:xlink="http://www.w3.org/1999/xlink" xmlns="http://www.w3.org/2000/svg">
  <path d="M 434 736  C 437.36 736  440 738.64  440 742  C 440 745.36  437.36 748  434 748  C 430.64 748  428 745.36  428 742  C 428 738.64  430.64 736  434 736  Z " fill-rule="nonzero" fill="#ffffff" stroke="none" />
  <path d="M 434 736.5  C 437.08 736.5  439.5 738.92  439.5 742  C 439.5 745.08  437.08 747.5  434 747.5  C 430.92 747.5  428.5 745.08  428.5 742  C 428.5 738.92  430.92 736.5  434 736.5  Z " stroke-width="1" stroke="#797979" fill="none" />
  <path d="M 434 745  C 432.32 745  431 743.68  431 742  C 431 740.32  432.32 739  434 739  C 435.68 739  437 740.32  437 742  C 437 743.68  435.68 745  434 745  " fill-rule="nonzero" fill="#797979" stroke="none" />
</svg>