<?xml version="1.0" encoding="utf-8"?>
<svg version="1.1" width="12px" height="12px" viewBox="429 503  12 12" xmlns:xlink="http://www.w3.org/1999/xlink" xmlns="http://www.w3.org/2000/svg">
  <path d="M 435 503  C 438.36 503  441 505.64  441 509  C 441 512.36  438.36 515  435 515  C 431.64 515  429 512.36  429 509  C 429 505.64  431.64 503  435 503  Z " fill-rule="nonzero" fill="#ffffff" stroke="none" />
  <path d="M 435 503.5  C 438.08 503.5  440.5 505.92  440.5 509  C 440.5 512.08  438.08 514.5  435 514.5  C 431.92 514.5  429.5 512.08  429.5 509  C 429.5 505.92  431.92 503.5  435 503.5  Z " stroke-width="1" stroke="#797979" fill="none" />
  <path d="M 435 512  C 433.32 512  432 510.68  432 509  C 432 507.32  433.32 506  435 506  C 436.68 506  438 507.32  438 509  C 438 510.68  436.68 512  435 512  " fill-rule="nonzero" fill="#797979" stroke="none" />
</svg>