<?xml version="1.0" encoding="utf-8"?>
<svg version="1.1" width="12px" height="12px" viewBox="429 408  12 12" xmlns:xlink="http://www.w3.org/1999/xlink" xmlns="http://www.w3.org/2000/svg">
  <path d="M 435 408  C 438.36 408  441 410.64  441 414  C 441 417.36  438.36 420  435 420  C 431.64 420  429 417.36  429 414  C 429 410.64  431.64 408  435 408  Z " fill-rule="nonzero" fill="#ffffff" stroke="none" />
  <path d="M 435 408.5  C 438.08 408.5  440.5 410.92  440.5 414  C 440.5 417.08  438.08 419.5  435 419.5  C 431.92 419.5  429.5 417.08  429.5 414  C 429.5 410.92  431.92 408.5  435 408.5  Z " stroke-width="1" stroke="#797979" fill="none" />
  <path d="M 435 417  C 433.32 417  432 415.68  432 414  C 432 412.32  433.32 411  435 411  C 436.68 411  438 412.32  438 414  C 438 415.68  436.68 417  435 417  " fill-rule="nonzero" fill="#797979" stroke="none" />
</svg>