<?xml version="1.0" encoding="utf-8"?>
<svg version="1.1" width="22px" height="22px" xmlns:xlink="http://www.w3.org/1999/xlink" xmlns="http://www.w3.org/2000/svg">
  <g transform="translate(-216 -4 )">
    <path d="M 18.1328125 9.32421875  C 18.3046875 9.15234375  18.390625 8.9375  18.390625 8.6796875  C 18.390625 8.41232638888891  18.3046875 8.19270833333337  18.1328125 8.02083333333337  L 16.8294270833333 6.73177083333337  C 16.6480034722222 6.55034722222229  16.4331597222222 6.45963541666663  16.1848958333333 6.45963541666663  C 15.9366319444445 6.45963541666663  15.7217881944445 6.55034722222229  15.5403645833333 6.73177083333337  L 9.69661458333331 12.5611979166666  L 6.45963541666669 9.32421875  C 6.27821180555554 9.14279513888891  6.06336805555554 9.05208333333337  5.81510416666669 9.05208333333337  C 5.56684027777777 9.05208333333337  5.35199652777777 9.14279513888891  5.17057291666669 9.32421875  L 3.8671875 10.61328125  C 3.6953125 10.78515625  3.609375 11.0047743055555  3.609375 11.2721354166666  C 3.609375 11.5299479166666  3.6953125 11.7447916666666  3.8671875 11.9166666666666  L 9.05208333333331 17.1015625  C 9.23350694444446 17.2829861111111  9.44835069444446 17.3736979166666  9.69661458333331 17.3736979166666  C 9.95442708333331 17.3736979166666  10.1740451388889 17.2829861111111  10.35546875 17.1015625  L 18.1328125 9.32421875  Z M 20.5247395833333 5.478515625  C 21.5082465277778 7.16384548611109  22 9.00434027777771  22 11  C 22 12.9956597222223  21.5082465277778 14.8361545138889  20.5247395833333 16.521484375  C 19.5412326388889 18.2068142361111  18.2068142361111 19.5412326388889  16.521484375 20.5247395833334  C 14.8361545138889 21.5082465277777  12.9956597222222 22  11 22  C 9.00434027777777 22  7.16384548611114 21.5082465277777  5.478515625 20.5247395833334  C 3.79318576388886 19.5412326388889  2.45876736111114 18.2068142361111  1.47526041666669 16.521484375  C 0.491753472222229 14.8361545138889  0 12.9956597222223  0 11  C 0 9.00434027777771  0.491753472222229 7.16384548611109  1.47526041666669 5.478515625  C 2.45876736111114 3.79318576388891  3.79318576388886 2.45876736111109  5.478515625 1.47526041666663  C 7.16384548611114 0.491753472222285  9.00434027777777 0  11 0  C 12.9956597222222 0  14.8361545138889 0.491753472222285  16.521484375 1.47526041666663  C 18.2068142361111 2.45876736111109  19.5412326388889 3.79318576388891  20.5247395833333 5.478515625  Z " fill-rule="nonzero" fill="#666666" stroke="none" transform="matrix(1 0 0 1 216 4 )" />
  </g>
</svg>