<?xml version="1.0" encoding="utf-8"?>
<svg version="1.1" width="10px" height="17px" xmlns:xlink="http://www.w3.org/1999/xlink" xmlns="http://www.w3.org/2000/svg">
  <g transform="translate(-442 -604 )">
    <path d="M 9.55517373043153 7.94923179692728  C 9.66653939162529 8.06056557559577  9.72222222222217 8.18859942106428  9.72222222222217 8.33333333333348  C 9.72222222222217 8.47806724560223  9.66653939162529 8.6061010910712  9.55517373043153 8.71743486973946  L 1.77071401298213 16.4996659986641  C 1.65934835178814 16.6109997773324  1.5312778414152 16.6666666666667  1.38650248186332 16.6666666666667  C 1.2417271223112 16.6666666666667  1.1136566119385 16.6109997773324  1.00229095074451 16.4996659986641  L 0.167048491790865 15.6646626586507  C 0.0556828305968793 15.5533288799822  0 15.4252950345135  0 15.2805611222445  C 0 15.1358272099756  0.0556828305968793 15.0077933645068  0.167048491790865 14.8964595858383  L 6.73205421916759 8.33333333333348  L 0.167048491790865 1.77020708082819  C 0.0556828305968793 1.65887330215992  0 1.53083945669118  0 1.38610554442221  C 0 1.24137163215323  0.0556828305968793 1.1133377866845  0.167048491790865 1.002004008016  L 1.00229095074451 0.167000668002629  C 1.1136566119385 0.0556668893341339  1.2417271223112 0  1.38650248186332 0  C 1.5312778414152 0  1.65934835178814 0.0556668893341339  1.77071401298213 0.167000668002629  L 9.55517373043153 7.94923179692728  Z " fill-rule="nonzero" fill="#aeaeae" stroke="none" transform="matrix(1 0 0 1 442 604 )" />
  </g>
</svg>