<?xml version="1.0" encoding="utf-8"?>
<svg version="1.1" width="17px" height="16px" xmlns:xlink="http://www.w3.org/1999/xlink" xmlns="http://www.w3.org/2000/svg">
  <g transform="translate(-424 -296 )">
    <path d="M 16.1430491428572 7.99846416071429  C 16.1430491428572 8.31484726785715  15.8880996428572 8.56979674999999  15.5717165357144 8.56979674999999  L 0.713997749999976 8.56979674999999  C 0.397614660714339 8.56979674999999  0.142665160714273 8.31484726785715  0.142665160714273 7.99846416071429  C 0.142665160714273 7.68208105357142  0.397614642857093 7.42713157142857  0.713997749999976 7.42713157142857  L 15.5717165535715 7.42713157142857  C 15.8880996428572 7.42713157142857  16.1430491428572 7.68208105357142  16.1430491428572 7.99846416071429  Z M 15.568644875 13.714861625  C 15.5717165357144 14.6578675892857  14.800724732143 15.4288593928571  13.8577188035715 15.4288593928571  L 10.426651625 15.4288593928571  C 10.1102685357143 15.4288593928571  9.85531903571427 15.1739099107143  9.85531903571427 14.8575268035714  C 9.85531903571427 14.5411436964286  10.1102685178572 14.2861942142857  10.426651625 14.2861942142857  L 13.8546471071429 14.2861942142857  C 14.1710301964287 14.2861942142857  14.4259796964286 14.0312447321429  14.4259796964286 13.714861625  L 14.4259796964286 10.8581987142857  C 14.4259796964286 10.541815625  14.6809291785714 10.286866125  14.9973122857143 10.286866125  C 15.3136953928572 10.286866125  15.568644875 10.5418156071429  15.568644875 10.8581987142857  L 15.568644875 13.714861625  Z M 5.85599100000002 14.8575268392857  C 5.85599098214288 15.1739099107143  5.60104150000006 15.4288593928571  5.28465839285718 15.4288593928571  L 2.42799548214282 15.4288593928571  C 1.48191787500002 15.4288593928571  0.713997732142843 14.66093925  0.713997732142843 13.7148616428571  L 0.713997732142843 10.8581987321429  C 0.713997732142843 10.5418156428571  0.968947214285777 10.2868661428571  1.28533032142855 10.2868661428571  C 1.60171342857143 10.2868661428571  1.85666291071425 10.5418156428571  1.85666291071425 10.85819875  L 1.85666291071425 13.7148616607143  C 1.85666291071425 14.03124475  2.11468407142854 14.28619425  2.42799549999995 14.28619425  L 5.28465841071431 14.28619425  C 5.60104150000006 14.28619425  5.85599100000002 14.5411437321429  5.85599100000002 14.8575268392857  Z M 1.85666289285712 5.14180126785715  C 1.85666291071425 5.45818435714286  1.60171342857143 5.71313383928572  1.28533032142855 5.71313383928572  C 0.968947232142909 5.71313383928572  0.713997732142843 5.45818435714286  0.713997732142843 5.14180125  L 0.713997732142843 2.28513833928571  C 0.713997732142843 1.33906073214285  1.48191787500002 0.571140589285719  2.42799548214282 0.571140589285719  L 5.28465839285718 0.571140589285719  C 5.60104148214282 0.571140589285719  5.85599098214288 0.826090071428567  5.85599098214288 1.14247317857144  C 5.85599098214288 1.45885628571429  5.60104150000006 1.71380576785714  5.28465839285718 1.71380576785714  L 2.42799548214282 1.71380576785714  C 2.11468407142854 1.71380576785714  1.85666289285712 1.97182692857143  1.85666289285712 2.28513835714286  L 1.85666289285712 5.14180126785715  Z M 15.5686448571429 5.14180125  C 15.5717165357144 5.45818435714286  15.3167670535714 5.71313383928572  15.0003839642858 5.71313383928572  C 14.684000875 5.71313383928572  14.4290513750001 5.45818435714286  14.4290513750001 5.14180125  L 14.4290513750001 2.28513833928571  C 14.4290513750001 1.97182692857143  14.1741018928572 1.71380575000001  13.8577187857143 1.71380575000001  L 10.426651625 1.71380576785714  C 10.1102685357143 1.71380576785714  9.85531903571427 1.45885628571429  9.85531903571427 1.14247317857142  C 9.85531903571427 0.826090071428567  10.1102685178572 0.571140589285719  10.426651625 0.571140589285719  L 13.8546471071429 0.571140589285719  C 14.8007247142857 0.571140589285719  15.5686448571429 1.33906073214285  15.5686448571429 2.28513833928571  L 15.5686448571429 5.14180125  Z " fill-rule="nonzero" fill="#ffffff" stroke="none" transform="matrix(1 0 0 1 424 296 )" />
  </g>
</svg>