<?xml version="1.0" encoding="utf-8"?>
<svg version="1.1" width="8px" height="25px" viewBox="762 1093  8 25" xmlns:xlink="http://www.w3.org/1999/xlink" xmlns="http://www.w3.org/2000/svg">
  <path d="M 766 1107  A 3.5 3.5 0 0 0 762.5 1110.5A 3.5 3.5 0 0 0 766 1114A 3.5 3.5 0 0 0 769.5 1110.5A 3.5 3.5 0 0 0 766 1107Z M 766 1093  A 3.5 3.5 0 0 0 762.5 1096.5A 3.5 3.5 0 0 0 766 1100A 3.5 3.5 0 0 0 769.5 1096.5A 3.5 3.5 0 0 0 766 1093Z " fill-rule="nonzero" fill="#3366ff" stroke="none" />
  <rect fill-rule="evenodd" fill="#3366ff" stroke="none" x="765" y="1095" width="2" height="17" />
  <path d="" stroke-width="2" stroke="#3366ff" fill="none" />
</svg>