<?xml version="1.0" encoding="utf-8"?>
<svg version="1.1" width="16px" height="16px" xmlns:xlink="http://www.w3.org/1999/xlink" xmlns="http://www.w3.org/2000/svg">
  <g transform="translate(-1217 -351 )">
    <path d="M 9.8125 9.8125  C 10.6554487179487 8.96955128205127  11.0769230769231 7.95512820512818  11.0769230769231 6.76923076923072  C 11.0769230769231 5.58333333333337  10.6554487179487 4.56891025641028  9.8125 3.72596153846155  C 8.96955128205127 2.88301282051282  7.95512820512818 2.46153846153845  6.76923076923072 2.46153846153845  C 5.58333333333337 2.46153846153845  4.56891025641028 2.88301282051282  3.72596153846155 3.72596153846155  C 2.88301282051282 4.56891025641028  2.46153846153845 5.58333333333337  2.46153846153845 6.76923076923072  C 2.46153846153845 7.95512820512818  2.88301282051282 8.96955128205127  3.72596153846155 9.8125  C 4.56891025641028 10.6554487179487  5.58333333333337 11.0769230769231  6.76923076923072 11.0769230769231  C 7.95512820512818 11.0769230769231  8.96955128205127 10.6554487179487  9.8125 9.8125  Z M 15.6442307692307 13.9038461538462  C 15.8814102564103 14.1410256410256  16 14.4294871794872  16 14.7692307692307  C 16 15.1025641025641  15.8782051282051 15.3910256410256  15.6346153846154 15.6346153846154  C 15.3910256410256 15.8782051282051  15.1025641025641 16  14.7692307692307 16  C 14.4230769230769 16  14.1346153846154 15.8782051282051  13.9038461538462 15.6346153846154  L 10.6057692307693 12.3461538461538  C 9.45833333333337 13.1410256410256  8.17948717948718 13.5384615384615  6.76923076923072 13.5384615384615  C 5.85256410256409 13.5384615384615  4.97596153846155 13.3605769230769  4.13942307692309 13.0048076923077  C 3.30288461538464 12.6490384615385  2.58173076923072 12.1682692307693  1.97596153846155 11.5625  C 1.37019230769226 10.9567307692307  0.889423076923094 10.2355769230769  0.533653846153811 9.39903846153845  C 0.177884615384642 8.5625  0 7.68589743589746  0 6.76923076923072  C 0 5.85256410256409  0.177884615384642 4.97596153846155  0.533653846153811 4.13942307692309  C 0.889423076923094 3.30288461538464  1.37019230769226 2.58173076923072  1.97596153846155 1.97596153846155  C 2.58173076923072 1.37019230769226  3.30288461538464 0.889423076923094  4.13942307692309 0.533653846153811  C 4.97596153846155 0.177884615384642  5.85256410256409 0  6.76923076923072 0  C 7.68589743589746 0  8.5625 0.177884615384642  9.39903846153845 0.533653846153811  C 10.2355769230769 0.889423076923094  10.9567307692307 1.37019230769226  11.5625 1.97596153846155  C 12.1682692307693 2.58173076923072  12.6490384615385 3.30288461538464  13.0048076923077 4.13942307692309  C 13.3605769230769 4.97596153846155  13.5384615384615 5.85256410256409  13.5384615384615 6.76923076923072  C 13.5384615384615 8.17948717948718  13.1410256410256 9.45833333333337  12.3461538461538 10.6057692307693  L 15.6442307692307 13.9038461538462  Z " fill-rule="nonzero" fill="#666666" stroke="none" transform="matrix(1 0 0 1 1217 351 )" />
  </g>
</svg>