<?xml version="1.0" encoding="utf-8"?>
<svg version="1.1" width="16px" height="9px" xmlns:xlink="http://www.w3.org/1999/xlink" xmlns="http://www.w3.org/2000/svg">
  <g transform="translate(-1034 -355 )">
    <path d="M 15.703125 0.295555555555552  C 15.9010416666667 0.492592592592587  16 0.725925925925935  16 0.995555555555541  C 16 1.2651851851852  15.9010416666667 1.49851851851849  15.703125 1.69555555555553  L 8.703125 8.66444444444443  C 8.50520833333326 8.86148148148146  8.27083333333326 8.95999999999998  8 8.95999999999998  C 7.72916666666674 8.95999999999998  7.49479166666674 8.86148148148146  7.296875 8.66444444444443  L 0.296875 1.69555555555553  C 0.0989583333332575 1.49851851851849  0 1.2651851851852  0 0.995555555555541  C 0 0.725925925925935  0.0989583333332575 0.492592592592587  0.296875 0.295555555555552  C 0.494791666666742 0.0985185185185173  0.729166666666742 0  1 0  L 15 0  C 15.2708333333333 0  15.5052083333333 0.0985185185185173  15.703125 0.295555555555552  Z " fill-rule="nonzero" fill="#666666" stroke="none" transform="matrix(1 0 0 1 1034 355 )" />
  </g>
</svg>