<?xml version="1.0" encoding="utf-8"?>
<svg version="1.1" width="20px" height="20px" xmlns:xlink="http://www.w3.org/1999/xlink" xmlns="http://www.w3.org/2000/svg">
  <g transform="translate(-1302 -287 )">
    <path d="M 12.3567708333333 12.3567708333333  C 13.0078125 11.7057291666667  13.3333333333333 10.9201388888889  13.3333333333333 10  C 13.3333333333333 9.07986111111109  13.0078125 8.29427083333331  12.3567708333333 7.64322916666669  C 11.7057291666667 6.9921875  10.9201388888889 6.66666666666669  10 6.66666666666669  C 9.07986111111109 6.66666666666669  8.29427083333326 6.9921875  7.64322916666674 7.64322916666669  C 6.9921875 8.29427083333331  6.66666666666674 9.07986111111109  6.66666666666674 10  C 6.66666666666674 10.9201388888889  6.9921875 11.7057291666667  7.64322916666674 12.3567708333333  C 8.29427083333326 13.0078125  9.07986111111109 13.3333333333333  10 13.3333333333333  C 10.9201388888889 13.3333333333333  11.7057291666667 13.0078125  12.3567708333333 12.3567708333333  Z M 19.8958333333333 8.27473958333331  C 19.9652777777778 8.36588541666669  20 8.46788194444446  20 8.58072916666669  L 20 11.4713541666667  C 20 11.5755208333333  19.9652777777778 11.6753472222222  19.8958333333333 11.7708333333333  C 19.8263888888889 11.8663194444445  19.7395833333333 11.9227430555555  19.6354166666667 11.9401041666667  L 17.2265625 12.3046875  C 17.0616319444443 12.7734375  16.8923611111111 13.1684027777778  16.71875 13.4895833333333  C 17.0225694444443 13.9236111111111  17.4869791666667 14.5225694444445  18.1119791666667 15.2864583333333  C 18.1987847222222 15.390625  18.2421875 15.4991319444445  18.2421875 15.6119791666667  C 18.2421875 15.7248263888889  18.203125 15.8246527777778  18.125 15.9114583333333  C 17.890625 16.2326388888889  17.4609375 16.7013888888889  16.8359375 17.3177083333333  C 16.2109375 17.9340277777778  15.8029513888889 18.2421875  15.6119791666667 18.2421875  C 15.5078125 18.2421875  15.3949652777778 18.203125  15.2734375 18.125  L 13.4765625 16.71875  C 13.0946180555557 16.9184027777778  12.6996527777778 17.0833333333333  12.2916666666667 17.2135416666667  C 12.1527777777778 18.3940972222222  12.0269097222222 19.2013888888889  11.9140625 19.6354166666667  C 11.8532986111111 19.8784722222222  11.6970486111111 20  11.4453125 20  L 8.5546875 20  C 8.43315972222217 20  8.32682291666674 19.9631076388889  8.23567708333326 19.8893229166667  C 8.14453125 19.8155381944445  8.09461805555566 19.7222222222222  8.0859375 19.609375  L 7.72135416666674 17.2135416666667  C 7.29600694444434 17.0746527777778  6.90538194444434 16.9140625  6.54947916666674 16.7317708333333  L 4.71354166666674 18.125  C 4.62673611111109 18.203125  4.51822916666674 18.2421875  4.38802083333326 18.2421875  C 4.26649305555566 18.2421875  4.15798611111109 18.1944444444445  4.0625 18.0989583333333  C 2.96875 17.109375  2.25260416666674 16.3802083333333  1.9140625 15.9114583333333  C 1.85329861111109 15.8246527777778  1.82291666666674 15.7248263888889  1.82291666666674 15.6119791666667  C 1.82291666666674 15.5078125  1.85763888888891 15.4079861111111  1.92708333333326 15.3125  C 2.05729166666674 15.1302083333333  2.27864583333326 14.8415798611111  2.59114583333326 14.4466145833333  C 2.90364583333326 14.0516493055555  3.13802083333326 13.7456597222222  3.29427083333326 13.5286458333333  C 3.05989583333326 13.0946180555555  2.88194444444434 12.6649305555555  2.76041666666674 12.2395833333333  L 0.377604166666742 11.8880208333333  C 0.264756944444343 11.8706597222222  0.173611111111086 11.81640625  0.104166666666742 11.7252604166667  C 0.0347222222221717 11.6341145833333  0 11.5321180555555  0 11.4192708333333  L 0 8.52864583333331  C 0 8.42447916666669  0.0347222222221717 8.32465277777777  0.104166666666742 8.22916666666669  C 0.173611111111086 8.13368055555554  0.256076388888914 8.07725694444446  0.3515625 8.05989583333331  L 2.7734375 7.6953125  C 2.89496527777783 7.29600694444446  3.06423611111109 6.89670138888891  3.28125 6.49739583333331  C 2.93402777777783 6.00260416666669  2.46961805555566 5.40364583333331  1.88802083333326 4.70052083333331  C 1.80121527777783 4.59635416666669  1.7578125 4.4921875  1.7578125 4.38802083333331  C 1.7578125 4.30121527777777  1.796875 4.20138888888891  1.875 4.08854166666669  C 2.10069444444434 3.77604166666669  2.52821180555566 3.30946180555554  3.15755208333326 2.68880208333331  C 3.78689236111109 2.06814236111109  4.19704861111109 1.7578125  4.38802083333326 1.7578125  C 4.50086805555566 1.7578125  4.61371527777783 1.80121527777777  4.7265625 1.88802083333331  L 6.5234375 3.28125  C 6.90538194444434 3.08159722222223  7.30034722222217 2.91666666666669  7.70833333333326 2.78645833333331  C 7.84722222222217 1.60590277777777  7.97309027777783 0.798611111111086  8.0859375 0.364583333333314  C 8.14670138888891 0.121527777777771  8.30295138888891 0  8.5546875 0  L 11.4453125 0  C 11.5668402777778 0  11.6731770833333 0.0368923611110858  11.7643229166667 0.110677083333314  C 11.85546875 0.184461805555543  11.9053819444443 0.277777777777771  11.9140625 0.390625  L 12.2786458333333 2.78645833333331  C 12.7039930555557 2.92534722222223  13.0946180555557 3.0859375  13.4505208333333 3.26822916666669  L 15.2994791666667 1.875  C 15.3776041666667 1.796875  15.4817708333333 1.7578125  15.6119791666667 1.7578125  C 15.7248263888889 1.7578125  15.8333333333333 1.80121527777777  15.9375 1.88802083333331  C 17.0572916666667 2.92100694444446  17.7734375 3.65885416666669  18.0859375 4.1015625  C 18.1467013888889 4.17100694444446  18.1770833333333 4.26649305555554  18.1770833333333 4.38802083333331  C 18.1770833333333 4.4921875  18.1423611111111 4.59201388888891  18.0729166666667 4.6875  C 17.9427083333333 4.86979166666669  17.7213541666667 5.15842013888891  17.4088541666667 5.55338541666669  C 17.0963541666667 5.94835069444446  16.8619791666667 6.25434027777777  16.7057291666667 6.47135416666669  C 16.9314236111111 6.90538194444446  17.109375 7.33072916666669  17.2395833333333 7.74739583333331  L 19.6223958333333 8.11197916666669  C 19.7352430555557 8.12934027777777  19.8263888888889 8.18359375  19.8958333333333 8.27473958333331  Z " fill-rule="nonzero" fill="#666666" stroke="none" transform="matrix(1 0 0 1 1302 287 )" />
  </g>
</svg>