<?xml version="1.0" encoding="utf-8"?>
<svg version="1.1" width="87px" height="24px" xmlns:xlink="http://www.w3.org/1999/xlink" xmlns="http://www.w3.org/2000/svg">
  <defs>
    <mask fill="white" id="clip350">
      <path d="M 0 22  L 0 2  C 0 0.88  0.88 0  2 0  L 85 0  C 86.12 0  87 0.88  87 2  L 87 22  C 87 23.12  86.12 24  85 24  L 2 24  C 0.88 24  0 23.12  0 22  Z " fill-rule="evenodd" />
    </mask>
  </defs>
  <g transform="translate(-729 -317 )">
    <path d="M 0 22  L 0 2  C 0 0.88  0.88 0  2 0  L 85 0  C 86.12 0  87 0.88  87 2  L 87 22  C 87 23.12  86.12 24  85 24  L 2 24  C 0.88 24  0 23.12  0 22  Z " fill-rule="nonzero" fill="#f2f2f2" stroke="none" transform="matrix(1 0 0 1 729 317 )" />
    <path d="M 0 22  L 0 2  C 0 0.88  0.88 0  2 0  L 85 0  C 86.12 0  87 0.88  87 2  L 87 22  C 87 23.12  86.12 24  85 24  L 2 24  C 0.88 24  0 23.12  0 22  Z " stroke-width="2" stroke="#999999" fill="none" transform="matrix(1 0 0 1 729 317 )" mask="url(#clip350)" />
  </g>
</svg>