<?xml version="1.0" encoding="utf-8"?>
<svg version="1.1" width="24px" height="19px" xmlns:xlink="http://www.w3.org/1999/xlink" xmlns="http://www.w3.org/2000/svg">
  <g transform="translate(-1285 -775 )">
    <path d="M 11.1928251121076 14.04  L 11.9461883408072 14.04  L 13.5067264573991 12.4977272727273  L 11.4618834080718 10.4768181818182  L 9.90134529147986 12.0190909090909  L 9.90134529147986 12.7636363636364  L 11.1928251121076 12.7636363636364  L 11.1928251121076 14.04  Z M 17.8520179372197 4.90602272727279  C 18.0044843049327 4.75534090909093  18.0089686098654 4.60909090909092  17.865470852018 4.46727272727276  C 17.7219730941704 4.32545454545459  17.5739910313901 4.32988636363632  17.421524663677 4.48056818181817  L 12.713004484305 9.13397727272729  C 12.5605381165919 9.28465909090914  12.5560538116592 9.43090909090915  12.6995515695068 9.57272727272732  C 12.8430493273543 9.71454545454549  12.9910313901345 9.71011363636364  13.1434977578475 9.55943181818179  L 17.8520179372197 4.90602272727279  Z M 18.6726457399104 11.9792045454545  C 18.8520179372197 12.0501136363637  18.9417040358744 12.1786363636364  18.9417040358744 12.3647727272728  L 18.9417040358744 14.8909090909091  C 18.9417040358744 15.9456818181818  18.5627802690583 16.8475568181818  17.8049327354261 17.5965340909091  C 17.0470852017938 18.3455113636364  16.1345291479821 18.72  15.067264573991 18.72  L 3.87443946188341 18.72  C 2.80717488789242 18.72  1.89461883408069 18.3455113636364  1.13677130044846 17.5965340909091  C 0.378923766816115 16.8475568181818  0 15.9456818181818  0 14.8909090909091  L 0 3.82909090909095  C 0 2.77431818181822  0.378923766816115 1.8724431818182  1.13677130044846 1.1234659090909  C 1.89461883408069 0.374488636363594  2.80717488789242 0  3.87443946188341 0  L 15.067264573991 0  C 15.6322869955156 0  16.1569506726457 0.110795454545496  16.6412556053812 0.332386363636374  C 16.7757847533633 0.394431818181829  16.8565022421525 0.49636363636364  16.8834080717489 0.638181818181806  C 16.9103139013453 0.788863636363658  16.8699551569507 0.91738636363641  16.762331838565 1.02374999999995  L 16.103139013453 1.67522727272728  C 15.9775784753364 1.79931818181819  15.8340807174887 1.83477272727271  15.6726457399103 1.78159090909094  C 15.4663677130045 1.72840909090905  15.2645739910314 1.70181818181823  15.067264573991 2  L 3.87443946188341 2  C 3.28251121076232 1.70181818181823  2.77578475336327 1.91011363636369  2.35426008968614 2.3267045454545  C 1.932735426009 2.74329545454543  1.72197309417038 3.24409090909091  2 3.82909090909095  L 2 14.8909090909091  C 1.72197309417038 15.4759090909091  1.932735426009 15.9767045454546  2.35426008968614 16.3932954545455  C 2.77578475336327 16.8098863636363  3.28251121076232 17.0181818181818  3.87443946188341 17  L 15.067264573991 17  C 15.6591928251121 17.0181818181818  16.1659192825113 16.8098863636363  16.5874439461884 16.3932954545455  C 17.0089686098654 15.9767045454546  17.219730941704 15.4759090909091  17.219730941704 14.8909090909091  L 17.219730941704 13.2156818181818  C 17.219730941704 13.1004545454546  17.2600896860986 13.0029545454546  17.3408071748879 12.9231818181819  L 18.201793721973 12.0722727272728  C 18.3363228699552 11.9393181818182  18.4932735426009 11.9082954545455  18.6726457399104 11.9792045454545  Z M 8.60986547085201 11.4872727272727  L 17.6502242152467 2.55272727272723  L 21.5246636771301 6.38181818181818  L 12.4843049327354 15.3163636363637  L 8.60986547085201 15.3163636363637  L 8.60986547085201 11.4872727272727  Z M 24 3.40363636363634  C 24 3.75818181818181  23.8744394618834 4.05954545454551  23.6233183856502 4.30772727272733  L 22.3856502242152 5.53090909090906  L 18.5112107623318 1.70181818181823  L 19.7488789237668 0.478636363636383  C 20 0.230454545454563  20.3049327354261 0.106363636363653  20.6636771300448 0.106363636363653  C 21.0224215246637 0.106363636363653  21.3273542600896 0.230454545454563  21.578475336323 0.478636363636383  L 23.6233183856502 2.49954545454546  C 23.8744394618834 2.74772727272727  24 3.04909090909086  24 3.40363636363634  Z " fill-rule="nonzero" fill="#ff6633" stroke="none" transform="matrix(1 0 0 1 1285 775 )" />
  </g>
</svg>