<?xml version="1.0" encoding="utf-8"?>
<svg version="1.1" width="12px" height="12px" viewBox="617 1318  12 12" xmlns:xlink="http://www.w3.org/1999/xlink" xmlns="http://www.w3.org/2000/svg">
  <path d="M 623 1318  C 626.36 1318  629 1320.64  629 1324  C 629 1327.36  626.36 1330  623 1330  C 619.64 1330  617 1327.36  617 1324  C 617 1320.64  619.64 1318  623 1318  Z " fill-rule="nonzero" fill="#ffffff" stroke="none" />
  <path d="M 623 1318.5  C 626.08 1318.5  628.5 1320.92  628.5 1324  C 628.5 1327.08  626.08 1329.5  623 1329.5  C 619.92 1329.5  617.5 1327.08  617.5 1324  C 617.5 1320.92  619.92 1318.5  623 1318.5  Z " stroke-width="1" stroke="#797979" fill="none" />
  <path d="M 623 1327  C 621.32 1327  620 1325.68  620 1324  C 620 1322.32  621.32 1321  623 1321  C 624.68 1321  626 1322.32  626 1324  C 626 1325.68  624.68 1327  623 1327  " fill-rule="nonzero" fill="#797979" stroke="none" />
</svg>