<?xml version="1.0" encoding="utf-8"?>
<svg version="1.1" width="100px" height="24px" xmlns:xlink="http://www.w3.org/1999/xlink" xmlns="http://www.w3.org/2000/svg">
  <defs>
    <mask fill="white" id="clip349">
      <path d="M 0 22  L 0 2  C 0 0.88  0.88 0  2 0  L 98 0  C 99.12 0  100 0.88  100 2  L 100 22  C 100 23.12  99.12 24  98 24  L 2 24  C 0.88 24  0 23.12  0 22  Z " fill-rule="evenodd" />
    </mask>
  </defs>
  <g transform="translate(-404 -879 )">
    <path d="M 0 22  L 0 2  C 0 0.88  0.88 0  2 0  L 98 0  C 99.12 0  100 0.88  100 2  L 100 22  C 100 23.12  99.12 24  98 24  L 2 24  C 0.88 24  0 23.12  0 22  Z " fill-rule="nonzero" fill="#3399ff" stroke="none" transform="matrix(1 0 0 1 404 879 )" />
    <path d="M 0 22  L 0 2  C 0 0.88  0.88 0  2 0  L 98 0  C 99.12 0  100 0.88  100 2  L 100 22  C 100 23.12  99.12 24  98 24  L 2 24  C 0.88 24  0 23.12  0 22  Z " stroke-width="2" stroke="#999999" fill="none" transform="matrix(1 0 0 1 404 879 )" mask="url(#clip349)" />
  </g>
</svg>