<?xml version="1.0" encoding="utf-8"?>
<svg version="1.1" width="12px" height="12px" viewBox="718 807.5  12 12" xmlns:xlink="http://www.w3.org/1999/xlink" xmlns="http://www.w3.org/2000/svg">
  <path d="M 724 807.5  C 727.36 807.5  730 810.14  730 813.5  C 730 816.86  727.36 819.5  724 819.5  C 720.64 819.5  718 816.86  718 813.5  C 718 810.14  720.64 807.5  724 807.5  Z " fill-rule="nonzero" fill="#ffffff" stroke="none" />
  <path d="M 724 808  C 727.08 808  729.5 810.42  729.5 813.5  C 729.5 816.58  727.08 819  724 819  C 720.92 819  718.5 816.58  718.5 813.5  C 718.5 810.42  720.92 808  724 808  Z " stroke-width="1" stroke="#797979" fill="none" />
  <path d="M 724 816.5  C 722.32 816.5  721 815.18  721 813.5  C 721 811.82  722.32 810.5  724 810.5  C 725.68 810.5  727 811.82  727 813.5  C 727 815.18  725.68 816.5  724 816.5  " fill-rule="nonzero" fill="#797979" stroke="none" />
</svg>