<?xml version="1.0" encoding="utf-8"?>
<svg version="1.1" width="16px" height="10px" xmlns:xlink="http://www.w3.org/1999/xlink" xmlns="http://www.w3.org/2000/svg">
  <g transform="translate(-406 -517 )">
    <path d="M 16 7.78260869565217  C 16 7.95330112721417  15.9371381306865 8.09983896940419  15.8114143920596 8.22222222222222  L 14.1637717121588 9.81642512077295  C 14.0380479735318 9.93880837359098  13.889164598842 10  13.7171215880893 10  C 13.5450785773366 10  13.3961952026468 9.93880837359098  13.2704714640199 9.81642512077295  L 8 4.68599033816425  L 2.72952853598015 9.81642512077295  C 2.60380479735319 9.93880837359098  2.45492142266336 10  2.28287841191067 10  C 2.11083540115798 10  1.96195202646816 9.93880837359098  1.83622828784119 9.81642512077295  L 0.188585607940447 8.22222222222222  C 0.0628618693134823 8.09983896940419  0 7.95330112721417  0 7.78260869565217  C 0 7.61191626409018  0.0628618693134823 7.46537842190016  0.188585607940447 7.34299516908212  L 7.55334987593052 0.183574879227053  C 7.67907361455749 0.0611916264090173  7.82795698924731 0  8 0  C 8.17204301075269 0  8.32092638544252 0.0611916264090173  8.44665012406948 0.183574879227053  L 15.8114143920596 7.34299516908212  C 15.9371381306865 7.46537842190016  16 7.61191626409018  16 7.78260869565217  Z " fill-rule="nonzero" fill="#aaaaaa" stroke="none" transform="matrix(1 0 0 1 406 517 )" />
  </g>
</svg>