<?xml version="1.0" encoding="utf-8"?>
<svg version="1.1" width="12px" height="12px" viewBox="135 567  12 12" xmlns:xlink="http://www.w3.org/1999/xlink" xmlns="http://www.w3.org/2000/svg">
  <path d="M 141 567  C 144.36 567  147 569.64  147 573  C 147 576.36  144.36 579  141 579  C 137.64 579  135 576.36  135 573  C 135 569.64  137.64 567  141 567  Z " fill-rule="nonzero" fill="#ffffff" stroke="none" />
  <path d="M 141 567.5  C 144.08 567.5  146.5 569.92  146.5 573  C 146.5 576.08  144.08 578.5  141 578.5  C 137.92 578.5  135.5 576.08  135.5 573  C 135.5 569.92  137.92 567.5  141 567.5  Z " stroke-width="1" stroke="#797979" fill="none" />
  <path d="M 141 576  C 139.32 576  138 574.68  138 573  C 138 571.32  139.32 570  141 570  C 142.68 570  144 571.32  144 573  C 144 574.68  142.68 576  141 576  " fill-rule="nonzero" fill="#797979" stroke="none" />
</svg>