<?xml version="1.0" encoding="utf-8"?>
<svg version="1.1" width="12px" height="12px" viewBox="135 530  12 12" xmlns:xlink="http://www.w3.org/1999/xlink" xmlns="http://www.w3.org/2000/svg">
  <path d="M 141 530  C 144.36 530  147 532.64  147 536  C 147 539.36  144.36 542  141 542  C 137.64 542  135 539.36  135 536  C 135 532.64  137.64 530  141 530  Z " fill-rule="nonzero" fill="#ffffff" stroke="none" />
  <path d="M 141 530.5  C 144.08 530.5  146.5 532.92  146.5 536  C 146.5 539.08  144.08 541.5  141 541.5  C 137.92 541.5  135.5 539.08  135.5 536  C 135.5 532.92  137.92 530.5  141 530.5  Z " stroke-width="1" stroke="#797979" fill="none" />
  <path d="M 141 539  C 139.32 539  138 537.68  138 536  C 138 534.32  139.32 533  141 533  C 142.68 533  144 534.32  144 536  C 144 537.68  142.68 539  141 539  " fill-rule="nonzero" fill="#797979" stroke="none" />
</svg>