<?xml version="1.0" encoding="utf-8"?>
<svg version="1.1" width="12px" height="12px" viewBox="135 604  12 12" xmlns:xlink="http://www.w3.org/1999/xlink" xmlns="http://www.w3.org/2000/svg">
  <path d="M 141 604  C 144.36 604  147 606.64  147 610  C 147 613.36  144.36 616  141 616  C 137.64 616  135 613.36  135 610  C 135 606.64  137.64 604  141 604  Z " fill-rule="nonzero" fill="#ffffff" stroke="none" />
  <path d="M 141 604.5  C 144.08 604.5  146.5 606.92  146.5 610  C 146.5 613.08  144.08 615.5  141 615.5  C 137.92 615.5  135.5 613.08  135.5 610  C 135.5 606.92  137.92 604.5  141 604.5  Z " stroke-width="1" stroke="#797979" fill="none" />
  <path d="M 141 613  C 139.32 613  138 611.68  138 610  C 138 608.32  139.32 607  141 607  C 142.68 607  144 608.32  144 610  C 144 611.68  142.68 613  141 613  " fill-rule="nonzero" fill="#797979" stroke="none" />
</svg>