<?xml version="1.0" encoding="utf-8"?>
<svg version="1.1" width="24px" height="23px" xmlns:xlink="http://www.w3.org/1999/xlink" xmlns="http://www.w3.org/2000/svg">
  <g transform="translate(-1135 -245 )">
    <path d="M 5.53846153846166 17  L 5.53846153846166 21  L 18.4615384615383 21  L 18.4615384615383 17  L 5.53846153846166 17  Z M 5.53846153846166 1.91666666666667  L 5.53846153846166 11.5  L 18.4615384615383 11.5  L 18.4615384615383 5.75  L 16.1538461538462 5.75  C 15.7692307692309 5.75  15.4423076923076 5.61024305555556  15.1730769230769 5.33072916666667  C 14.9038461538462 5.05121527777778  14.7692307692307 4.71180555555556  14.7692307692307 4.3125  L 14.7692307692307 1.91666666666667  L 5.53846153846166 1.91666666666667  Z M 21.8798076923076 13.1321614583333  C 22.0625 12.9424913194444  22.1538461538462 12.7178819444444  22.1538461538462 12.4583333333333  C 22.1538461538462 12.1987847222222  22.0625 11.9741753472222  21.8798076923076 11.7845052083333  C 21.6971153846155 11.5948350694444  21.4807692307693 11.5  21.2307692307693 11.5  C 20.9807692307691 11.5  20.7644230769231 11.5948350694444  20.5817307692307 11.7845052083333  C 20.3990384615386 11.9741753472222  20.3076923076924 12.1987847222222  20.3076923076924 12.4583333333333  C 20.3076923076924 12.7178819444444  20.3990384615386 12.9424913194444  20.5817307692307 13.1321614583333  C 20.7644230769231 13.3218315972222  20.9807692307691 13.4166666666667  21.2307692307693 13.4166666666667  C 21.4807692307693 13.4166666666667  21.6971153846155 13.3218315972222  21.8798076923076 13.1321614583333  Z M 23.1850961538462 10.4293619791667  C 23.7283653846155 10.9933810763889  24 11.6697048611111  24 12.4583333333333  L 24 18.6875  C 24 18.8172743055556  23.9543269230769 18.9295789930556  23.8629807692307 19.0244140625  C 23.7716346153848 19.1192491319444  23.6634615384614 19.1666666666667  23.5384615384617 19.1666666666667  L 20.3076923076924 19.1666666666667  L 20.3076923076924 21.5625  C 20.3076923076924 21.9618055555556  20.1730769230769 22.3012152777778  19.9038461538462 22.5807291666667  C 19.6346153846155 22.8602430555556  19.3076923076924 23  18.9230769230769 23  L 5.07692307692309 23  C 4.69230769230762 23  4.36538461538476 22.8602430555556  4.09615384615381 22.5807291666667  C 3.82692307692309 22.3012152777778  3.69230769230762 21.9618055555556  3.69230769230762 21.5625  L 3.69230769230762 19.1666666666667  L 0.461538461538339 19.1666666666667  C 0.336538461538566 19.1666666666667  0.228365384615245 19.1192491319444  0.137019230769283 19.0244140625  C 0.0456730769230944 18.9295789930556  0 18.8172743055556  0 18.6875  L 0 12.4583333333333  C 0 11.6697048611111  0.271634615384528 10.9933810763889  0.814903846153811 10.4293619791667  C 1.35817307692309 9.86534288194444  2.00961538461524 9.58333333333333  2.76923076923072 9.58333333333333  L 3.69230769230762 9.58333333333333  L 3.69230769230762 1.4375  C 3.69230769230762 1.03819444444444  3.82692307692309 0.698784722222222  4.09615384615381 0.419270833333333  C 4.36538461538476 0.139756944444444  4.69230769230762 0  5.07692307692309 0  L 14.7692307692307 0  C 15.1538461538462 0  15.5769230769231 0.0998263888888889  16.0384615384617 0.299479166666667  C 16.5 0.499131944444444  16.8653846153845 0.738715277777778  17.1346153846152 1.01822916666667  L 19.3269230769231 3.29427083333333  C 19.5961538461538 3.57378472222222  19.8269230769231 3.953125  20.0192307692307 4.43229166666667  C 20.2115384615386 4.91145833333333  20.3076923076924 5.35069444444444  20.3076923076924 5.75  L 20.3076923076924 9.58333333333333  L 21.2307692307693 9.58333333333333  C 21.9903846153848 9.58333333333333  22.6418269230769 9.86534288194444  23.1850961538462 10.4293619791667  Z " fill-rule="nonzero" fill="#ff9933" stroke="none" transform="matrix(1 0 0 1 1135 245 )" />
  </g>
</svg>