<?xml version="1.0" encoding="utf-8"?>
<svg version="1.1" width="14px" height="24px" xmlns:xlink="http://www.w3.org/1999/xlink" xmlns="http://www.w3.org/2000/svg">
  <g transform="translate(-1297 -1585 )">
    <path d="M 13.6808247422682 11.4468937875752  C 13.8402749140894 11.6072144288577  13.9200000000001 11.7915831663327  13.9200000000001 12  C 13.9200000000001 12.2084168336673  13.8402749140894 12.3927855711423  13.6808247422682 12.5531062124248  L 2.53525773195884 23.7595190380762  C 2.37580756013745 23.9198396793588  2.19243986254287 24  1.98515463917533 24  C 1.77786941580757 24  1.594501718213 23.9198396793588  1.43505154639183 23.7595190380762  L 0.239175257731858 22.557114228457  C 0.0797250859106953 22.3967935871743  0 22.2124248496993  0 22.0040080160321  C 0 21.7955911823648  0.0797250859106953 21.6112224448898  0.239175257731858 21.4509018036072  L 9.63876288659799 12  L 0.239175257731858 2.54909819639283  C 0.0797250859106953 2.38877755511021  0 2.20440881763523  0 1.99599198396788  C 0 1.78757515030065  0.0797250859106953 1.60320641282567  0.239175257731858 1.44288577154305  L 1.43505154639183 0.240480961923822  C 1.594501718213 0.080160320641312  1.77786941580757 0  1.98515463917533 0  C 2.19243986254287 0  2.37580756013745 0.080160320641312  2.53525773195884 0.240480961923822  L 13.6808247422682 11.4468937875752  Z " fill-rule="nonzero" fill="#333333" stroke="none" transform="matrix(1 0 0 1 1297 1585 )" />
  </g>
</svg>