<?xml version="1.0" encoding="utf-8"?>
<svg version="1.1" width="12px" height="12px" viewBox="374 1211  12 12" xmlns:xlink="http://www.w3.org/1999/xlink" xmlns="http://www.w3.org/2000/svg">
  <path d="M 380 1211  C 383.36 1211  386 1213.64  386 1217  C 386 1220.36  383.36 1223  380 1223  C 376.64 1223  374 1220.36  374 1217  C 374 1213.64  376.64 1211  380 1211  Z " fill-rule="nonzero" fill="#ffffff" stroke="none" />
  <path d="M 380 1211.5  C 383.08 1211.5  385.5 1213.92  385.5 1217  C 385.5 1220.08  383.08 1222.5  380 1222.5  C 376.92 1222.5  374.5 1220.08  374.5 1217  C 374.5 1213.92  376.92 1211.5  380 1211.5  Z " stroke-width="1" stroke="#797979" fill="none" />
  <path d="M 380 1220  C 378.32 1220  377 1218.68  377 1217  C 377 1215.32  378.32 1214  380 1214  C 381.68 1214  383 1215.32  383 1217  C 383 1218.68  381.68 1220  380 1220  " fill-rule="nonzero" fill="#797979" stroke="none" />
</svg>