<?xml version="1.0" encoding="utf-8"?>
<svg version="1.1" width="24px" height="22px" xmlns:xlink="http://www.w3.org/1999/xlink" xmlns="http://www.w3.org/2000/svg">
  <g transform="translate(-701 -1771 )">
    <path d="M 13.5835189309577 18.4897836538462  C 13.6681514476615 18.4060496794872  13.7104677060134 18.302483974359  13.7104677060134 18.1790865384615  L 13.7104677060134 15.6670673076923  C 13.7104677060134 15.5436698717949  13.6681514476615 15.4401041666667  13.5835189309577 15.3563701923077  C 13.4988864142539 15.2726362179487  13.3986636971047 15.2307692307692  13.28285077951 15.2307692307692  L 10.71714922049 15.2307692307692  C 10.6013363028953 15.2307692307692  10.5011135857461 15.2726362179487  10.4164810690423 15.3563701923077  C 10.3318485523385 15.4401041666667  10.2895322939866 15.5436698717949  10.2895322939866 15.6670673076923  L 10.2895322939866 18.1790865384615  C 10.2895322939866 18.302483974359  10.3318485523385 18.4060496794872  10.4164810690423 18.4897836538462  C 10.5011135857461 18.5735176282051  10.6013363028953 18.6153846153846  10.71714922049 18.6153846153846  L 13.28285077951 18.6153846153846  C 13.3986636971047 18.6153846153846  13.4988864142539 18.5735176282051  13.5835189309577 18.4897836538462  Z M 13.543429844098 13.4525240384615  C 13.6280623608018 13.3952323717949  13.6748329621381 13.322516025641  13.6837416481069 13.234375  L 13.924276169265 7.16586538461539  C 13.924276169265 7.06009615384615  13.8797327394209 6.97636217948718  13.7906458797327 6.91466346153846  C 13.6748329621381 6.81770833333333  13.5679287305123 6.76923076923077  13.4699331848552 6.76923076923077  L 10.5300668151448 6.76923076923077  C 10.4320712694878 6.76923076923077  10.3251670378619 6.81770833333333  10.2093541202673 6.91466346153846  C 10.1202672605791 6.97636217948718  10.075723830735 7.06891025641025  10.075723830735 7.19230769230769  L 10.3028953229399 13.234375  C 10.3028953229399 13.322516025641  10.347438752784 13.3952323717949  10.4365256124722 13.4525240384615  C 10.5256124721604 13.5098157051282  10.6325167037862 13.5384615384615  10.7572383073497 13.5384615384615  L 13.2293986636971 13.5384615384615  C 13.3541202672606 13.5384615384615  13.4587973273942 13.5098157051282  13.543429844098 13.4525240384615  Z M 12.8685968819599 0.23798076923077  C 13.1358574610245 0.396634615384615  13.3452115812918 0.612580128205127  13.4966592427617 0.885817307692309  L 23.7594654788419 19.5012019230769  C 24.0712694877506 20.0564903846154  24.0623608017817 20.6117788461538  23.7327394209354 21.1670673076923  C 23.5812917594655 21.4226762820513  23.3741648106904 21.6254006410256  23.1113585746102 21.7752403846154  C 22.8485523385301 21.9250801282051  22.56570155902 22  22.2628062360802 22  L 1.73719376391982 22  C 1.43429844097996 22  1.15144766146993 21.9250801282051  0.888641425389755 21.7752403846154  C 0.625835189309577 21.6254006410256  0.418708240534521 21.4226762820513  0.267260579064588 21.1670673076923  C -0.0623608017817372 20.6117788461538  -0.0712694877505568 20.0564903846154  0.240534521158129 19.5012019230769  L 10.5033407572383 0.885817307692309  C 10.6547884187082 0.612580128205127  10.8641425389755 0.396634615384615  11.1314031180401 0.23798076923077  C 11.3986636971047 0.079326923076924  11.6881959910913 0  12 0  C 12.3118040089087 0  12.6013363028953 0.079326923076924  12.8685968819599 0.23798076923077  Z " fill-rule="nonzero" fill="#a40825" stroke="none" transform="matrix(1 0 0 1 701 1771 )" />
  </g>
</svg>