<?xml version="1.0" encoding="utf-8"?>
<svg version="1.1" width="110px" height="70px" xmlns:xlink="http://www.w3.org/1999/xlink" xmlns="http://www.w3.org/2000/svg">
  <defs>
    <linearGradient gradientUnits="userSpaceOnUse" x1="196" y1="1227" x2="196" y2="1297" id="LinearGradient307">
      <stop id="Stop308" stop-color="#ffffff" offset="0" />
      <stop id="Stop309" stop-color="#f2f2f2" offset="0" />
      <stop id="Stop310" stop-color="#e4e4e4" offset="1" />
      <stop id="Stop311" stop-color="#ffffff" offset="1" />
    </linearGradient>
  </defs>
  <g transform="translate(-141 -1227 )">
    <path d="M 151.5 1296.5  L 250.5 1296.5  L 250.5 1237.5  L 245.5 1237.5  L 245.5 1232.5  L 240.5 1232.5  L 240.5 1227.5  L 141.5 1227.5  L 141.5 1286.5  L 146.5 1286.5  L 146.5 1291.5  L 151.5 1291.5  L 151.5 1296.5  Z " fill-rule="nonzero" fill="url(#LinearGradient307)" stroke="none" />
    <path d="M 151.5 1296.5  L 250.5 1296.5  L 250.5 1237.5  L 245.5 1237.5  L 245.5 1232.5  L 240.5 1232.5  L 240.5 1227.5  L 141.5 1227.5  L 141.5 1286.5  L 146.5 1286.5  L 146.5 1291.5  L 151.5 1291.5  L 151.5 1296.5  Z " stroke-width="1" stroke="#993333" fill="none" />
    <path d="M 245.5 1238  L 245.5 1291.5  L 152 1291.5  M 240.5 1233  L 240.5 1286.5  L 147 1286.5  " stroke-width="1" stroke="#993333" fill="none" />
  </g>
</svg>