<?xml version="1.0" encoding="utf-8"?>
<svg version="1.1" width="110px" height="70px" xmlns:xlink="http://www.w3.org/1999/xlink" xmlns="http://www.w3.org/2000/svg">
  <defs>
    <linearGradient gradientUnits="userSpaceOnUse" x1="196" y1="1603" x2="196" y2="1673" id="LinearGradient324">
      <stop id="Stop325" stop-color="#ffffff" offset="0" />
      <stop id="Stop326" stop-color="#f2f2f2" offset="0" />
      <stop id="Stop327" stop-color="#e4e4e4" offset="1" />
      <stop id="Stop328" stop-color="#ffffff" offset="1" />
    </linearGradient>
  </defs>
  <g transform="translate(-141 -1603 )">
    <path d="M 151.5 1672.5  L 250.5 1672.5  L 250.5 1613.5  L 245.5 1613.5  L 245.5 1608.5  L 240.5 1608.5  L 240.5 1603.5  L 141.5 1603.5  L 141.5 1662.5  L 146.5 1662.5  L 146.5 1667.5  L 151.5 1667.5  L 151.5 1672.5  Z " fill-rule="nonzero" fill="url(#LinearGradient324)" stroke="none" />
    <path d="M 151.5 1672.5  L 250.5 1672.5  L 250.5 1613.5  L 245.5 1613.5  L 245.5 1608.5  L 240.5 1608.5  L 240.5 1603.5  L 141.5 1603.5  L 141.5 1662.5  L 146.5 1662.5  L 146.5 1667.5  L 151.5 1667.5  L 151.5 1672.5  Z " stroke-width="1" stroke="#663333" fill="none" />
    <path d="M 245.5 1614  L 245.5 1667.5  L 152 1667.5  M 240.5 1609  L 240.5 1662.5  L 147 1662.5  " stroke-width="1" stroke="#663333" fill="none" />
  </g>
</svg>