<?xml version="1.0" encoding="utf-8"?>
<svg version="1.1" width="110px" height="70px" xmlns:xlink="http://www.w3.org/1999/xlink" xmlns="http://www.w3.org/2000/svg">
  <defs>
    <linearGradient gradientUnits="userSpaceOnUse" x1="614" y1="1432" x2="614" y2="1502" id="LinearGradient333">
      <stop id="Stop334" stop-color="#ffffff" offset="0" />
      <stop id="Stop335" stop-color="#f2f2f2" offset="0" />
      <stop id="Stop336" stop-color="#e4e4e4" offset="1" />
      <stop id="Stop337" stop-color="#ffffff" offset="1" />
    </linearGradient>
  </defs>
  <g transform="translate(-559 -1432 )">
    <path d="M 579 1501.5  L 659 1501.5  C 664.32 1501.5  668.5 1497.32  668.5 1492  L 668.5 1452  C 668.5 1448.01960377368  666.16005511139 1444.67737433516  662.753426824863 1443.24657317514  C 661.804162307016 1440.98644685692  660.013553143075 1439.19583769298  657.753426824863 1438.24657317514  C 656.322625664841 1434.83994488861  652.980396226322 1432.5  649 1432.5  L 569 1432.5  C 563.68 1432.5  559.5 1436.68  559.5 1442  L 559.5 1482  C 559.5 1485.98039622632  561.83994488861 1489.32262566484  565.246573175137 1490.75342682486  C 566.195837692984 1493.01355314308  567.986446856925 1494.80416230702  570.246573175137 1495.75342682486  C 571.677374335159 1499.16005511139  575.019603773678 1501.5  579 1501.5  Z " fill-rule="nonzero" fill="url(#LinearGradient333)" stroke="none" />
    <path d="M 579.5 1501.5  L 658.5 1501.5  C 664.1 1501.5  668.5 1497.1  668.5 1491.5  L 668.5 1452.5  C 668.5 1448.38207543127  666.120786603431 1444.91302724343  662.634752186914 1443.36524781309  C 661.644031495375 1441.13386628665  659.86613371335 1439.35596850463  657.634752186914 1438.36524781309  C 656.086972756572 1434.87921339657  652.617924568727 1432.5  648.5 1432.5  L 569.5 1432.5  C 563.9 1432.5  559.5 1436.9  559.5 1442.5  L 559.5 1481.5  C 559.5 1485.61792456873  561.879213396569 1489.08697275657  565.365247813086 1490.63475218691  C 566.355968504625 1492.86613371335  568.13386628665 1494.64403149537  570.365247813086 1495.63475218691  C 571.913027243428 1499.12078660343  575.382075431273 1501.5  579.5 1501.5  Z " stroke-width="1" stroke="#cc33ff" fill="none" />
    <path d="M 662.678014577568 1443.07198542243  C 663.207220379431 1444.26390566801  663.5 1445.59202834029  663.5 1447  L 663.5 1486.5  C 663.5 1492.1  659.1 1496.5  653.5 1496.5  L 574 1496.5  C 570.087971659709 1496.5  566.792375881257 1494.23974727326  565.321985422432 1490.92801457757  M 657.678014577568 1438.07198542243  C 658.207220379431 1439.26390566801  658.5 1440.59202834029  658.5 1442  L 658.5 1481.499  C 658.5 1487.099  654.1 1491.499  648.5 1491.499  L 569 1491.5  C 567.592028340291 1491.5  566.263905668009 1491.20722037943  565.071985422432 1490.67801457757  " stroke-width="1" stroke="#cc33ff" fill="none" />
  </g>
</svg>