<?xml version="1.0" encoding="utf-8"?>
<svg version="1.1" width="12px" height="12px" viewBox="377 1241  12 12" xmlns:xlink="http://www.w3.org/1999/xlink" xmlns="http://www.w3.org/2000/svg">
  <path d="M 383 1241  C 386.36 1241  389 1243.64  389 1247  C 389 1250.36  386.36 1253  383 1253  C 379.64 1253  377 1250.36  377 1247  C 377 1243.64  379.64 1241  383 1241  Z " fill-rule="nonzero" fill="#ffffff" stroke="none" />
  <path d="M 383 1241.5  C 386.08 1241.5  388.5 1243.92  388.5 1247  C 388.5 1250.08  386.08 1252.5  383 1252.5  C 379.92 1252.5  377.5 1250.08  377.5 1247  C 377.5 1243.92  379.92 1241.5  383 1241.5  Z " stroke-width="1" stroke="#797979" fill="none" />
  <path d="M 383 1250  C 381.32 1250  380 1248.68  380 1247  C 380 1245.32  381.32 1244  383 1244  C 384.68 1244  386 1245.32  386 1247  C 386 1248.68  384.68 1250  383 1250  " fill-rule="nonzero" fill="#797979" stroke="none" />
</svg>