<?xml version="1.0" encoding="utf-8"?>
<svg version="1.1" width="12px" height="12px" viewBox="296 1241  12 12" xmlns:xlink="http://www.w3.org/1999/xlink" xmlns="http://www.w3.org/2000/svg">
  <path d="M 302 1241  C 305.36 1241  308 1243.64  308 1247  C 308 1250.36  305.36 1253  302 1253  C 298.64 1253  296 1250.36  296 1247  C 296 1243.64  298.64 1241  302 1241  Z " fill-rule="nonzero" fill="#ffffff" stroke="none" />
  <path d="M 302 1241.5  C 305.08 1241.5  307.5 1243.92  307.5 1247  C 307.5 1250.08  305.08 1252.5  302 1252.5  C 298.92 1252.5  296.5 1250.08  296.5 1247  C 296.5 1243.92  298.92 1241.5  302 1241.5  Z " stroke-width="1" stroke="#797979" fill="none" />
  <path d="M 302 1250  C 300.32 1250  299 1248.68  299 1247  C 299 1245.32  300.32 1244  302 1244  C 303.68 1244  305 1245.32  305 1247  C 305 1248.68  303.68 1250  302 1250  " fill-rule="nonzero" fill="#797979" stroke="none" />
</svg>