<?xml version="1.0" encoding="utf-8"?>
<svg version="1.1" width="12px" height="12px" viewBox="377 1211  12 12" xmlns:xlink="http://www.w3.org/1999/xlink" xmlns="http://www.w3.org/2000/svg">
  <path d="M 383 1211  C 386.36 1211  389 1213.64  389 1217  C 389 1220.36  386.36 1223  383 1223  C 379.64 1223  377 1220.36  377 1217  C 377 1213.64  379.64 1211  383 1211  Z " fill-rule="nonzero" fill="#ffffff" stroke="none" />
  <path d="M 383 1211.5  C 386.08 1211.5  388.5 1213.92  388.5 1217  C 388.5 1220.08  386.08 1222.5  383 1222.5  C 379.92 1222.5  377.5 1220.08  377.5 1217  C 377.5 1213.92  379.92 1211.5  383 1211.5  Z " stroke-width="1" stroke="#797979" fill="none" />
  <path d="M 383 1220  C 381.32 1220  380 1218.68  380 1217  C 380 1215.32  381.32 1214  383 1214  C 384.68 1214  386 1215.32  386 1217  C 386 1218.68  384.68 1220  383 1220  " fill-rule="nonzero" fill="#797979" stroke="none" />
</svg>