<?xml version="1.0" encoding="utf-8"?>
<svg version="1.1" width="12px" height="12px" viewBox="408 578  12 12" xmlns:xlink="http://www.w3.org/1999/xlink" xmlns="http://www.w3.org/2000/svg">
  <path d="M 414 578  C 417.36 578  420 580.64  420 584  C 420 587.36  417.36 590  414 590  C 410.64 590  408 587.36  408 584  C 408 580.64  410.64 578  414 578  Z " fill-rule="nonzero" fill="#ffffff" stroke="none" />
  <path d="M 414 578.5  C 417.08 578.5  419.5 580.92  419.5 584  C 419.5 587.08  417.08 589.5  414 589.5  C 410.92 589.5  408.5 587.08  408.5 584  C 408.5 580.92  410.92 578.5  414 578.5  Z " stroke-width="1" stroke="#797979" fill="none" />
  <path d="M 414 587  C 412.32 587  411 585.68  411 584  C 411 582.32  412.32 581  414 581  C 415.68 581  417 582.32  417 584  C 417 585.68  415.68 587  414 587  " fill-rule="nonzero" fill="#797979" stroke="none" />
</svg>