<?xml version="1.0" encoding="utf-8"?>
<svg version="1.1" width="12px" height="12px" viewBox="1032 1031  12 12" xmlns:xlink="http://www.w3.org/1999/xlink" xmlns="http://www.w3.org/2000/svg">
  <path d="M 1038 1031  C 1041.36 1031  1044 1033.64  1044 1037  C 1044 1040.36  1041.36 1043  1038 1043  C 1034.64 1043  1032 1040.36  1032 1037  C 1032 1033.64  1034.64 1031  1038 1031  Z " fill-rule="nonzero" fill="#ffffff" stroke="none" />
  <path d="M 1038 1031.5  C 1041.08 1031.5  1043.5 1033.92  1043.5 1037  C 1043.5 1040.08  1041.08 1042.5  1038 1042.5  C 1034.92 1042.5  1032.5 1040.08  1032.5 1037  C 1032.5 1033.92  1034.92 1031.5  1038 1031.5  Z " stroke-width="1" stroke="#797979" fill="none" />
  <path d="M 1038 1040  C 1036.32 1040  1035 1038.68  1035 1037  C 1035 1035.32  1036.32 1034  1038 1034  C 1039.68 1034  1041 1035.32  1041 1037  C 1041 1038.68  1039.68 1040  1038 1040  " fill-rule="nonzero" fill="#797979" stroke="none" />
</svg>