<?xml version="1.0" encoding="utf-8"?>
<svg version="1.1" width="21px" height="16px" xmlns:xlink="http://www.w3.org/1999/xlink" xmlns="http://www.w3.org/2000/svg">
  <g transform="translate(-529 -300 )">
    <path d="M 4.388671875 11.7443181818182  C 4.462890625 11.8162878787879  4.5 11.9015151515152  4.5 12  L 4.5 12.7272727272727  C 4.5 12.8257575757576  4.462890625 12.9109848484848  4.388671875 12.9829545454545  C 4.314453125 13.0549242424242  4.2265625 13.0909090909091  4.125 13.0909090909091  L 3.375 13.0909090909091  C 3.2734375 13.0909090909091  3.185546875 13.0549242424242  3.111328125 12.9829545454545  C 3.037109375 12.9109848484848  3 12.8257575757576  3 12.7272727272727  L 3 12  C 3 11.9015151515152  3.037109375 11.8162878787879  3.111328125 11.7443181818182  C 3.185546875 11.6723484848485  3.2734375 11.6363636363636  3.375 11.6363636363636  L 4.125 11.6363636363636  C 4.2265625 11.6363636363636  4.314453125 11.6723484848485  4.388671875 11.7443181818182  Z M 4.388671875 8.83522727272727  C 4.462890625 8.90719696969697  4.5 8.99242424242424  4.5 9.09090909090909  L 4.5 9.81818181818182  C 4.5 9.91666666666667  4.462890625 10.0018939393939  4.388671875 10.0738636363636  C 4.314453125 10.1458333333333  4.2265625 10.1818181818182  4.125 10.1818181818182  L 3.375 10.1818181818182  C 3.2734375 10.1818181818182  3.185546875 10.1458333333333  3.111328125 10.0738636363636  C 3.037109375 10.0018939393939  3 9.91666666666667  3 9.81818181818182  L 3 9.09090909090909  C 3 8.99242424242424  3.037109375 8.90719696969697  3.111328125 8.83522727272727  C 3.185546875 8.76325757575757  3.2734375 8.72727272727273  3.375 8.72727272727273  L 4.125 8.72727272727273  C 4.2265625 8.72727272727273  4.314453125 8.76325757575757  4.388671875 8.83522727272727  Z M 4.388671875 5.92613636363636  C 4.462890625 5.99810606060606  4.5 6.08333333333333  4.5 6.18181818181818  L 4.5 6.90909090909091  C 4.5 7.00757575757576  4.462890625 7.09280303030303  4.388671875 7.16477272727273  C 4.314453125 7.23674242424242  4.2265625 7.27272727272727  4.125 7.27272727272727  L 3.375 7.27272727272727  C 3.2734375 7.27272727272727  3.185546875 7.23674242424242  3.111328125 7.16477272727273  C 3.037109375 7.09280303030303  3 7.00757575757576  3 6.90909090909091  L 3 6.18181818181818  C 3 6.08333333333333  3.037109375 5.99810606060606  3.111328125 5.92613636363636  C 3.185546875 5.85416666666667  3.2734375 5.81818181818182  3.375 5.81818181818182  L 4.125 5.81818181818182  C 4.2265625 5.81818181818182  4.314453125 5.85416666666667  4.388671875 5.92613636363636  Z M 17.888671875 11.7443181818182  C 17.962890625 11.8162878787879  18 11.9015151515152  18 12  L 18 12.7272727272727  C 18 12.8257575757576  17.962890625 12.9109848484848  17.888671875 12.9829545454545  C 17.814453125 13.0549242424242  17.7265625 13.0909090909091  17.625 13  L 6.375 13  C 6.2734375 13.0909090909091  6.185546875 13.0549242424242  6.111328125 12.9829545454545  C 6.037109375 12.9109848484848  6 12.8257575757576  6 12.7272727272727  L 6 12  C 6 11.9015151515152  6.037109375 11.8162878787879  6.111328125 11.7443181818182  C 6.185546875 11.6723484848485  6.2734375 11.6363636363636  6.375 11.6363636363636  L 17.625 11.6363636363636  C 17.7265625 11.6363636363636  17.814453125 11.6723484848485  17.888671875 11.7443181818182  Z M 17.888671875 8.83522727272727  C 17.962890625 8.90719696969697  18 8.99242424242424  18 9.09090909090909  L 18 9.81818181818182  C 18 9.91666666666667  17.962890625 10.0018939393939  17.888671875 10.0738636363636  C 17.814453125 10.1458333333333  17.7265625 10.1818181818182  17.625 10  L 6.375 10  C 6.2734375 10.1818181818182  6.185546875 10.1458333333333  6.111328125 10.0738636363636  C 6.037109375 10.0018939393939  6 9.91666666666667  6 9.81818181818182  L 6 9.09090909090909  C 6 8.99242424242424  6.037109375 8.90719696969697  6.111328125 8.83522727272727  C 6.185546875 8.76325757575757  6.2734375 8.72727272727273  6.375 8.72727272727273  L 17.625 8.72727272727273  C 17.7265625 8.72727272727273  17.814453125 8.76325757575757  17.888671875 8.83522727272727  Z M 17.888671875 5.92613636363636  C 17.962890625 5.99810606060606  18 6.08333333333333  18 6.18181818181818  L 18 6.90909090909091  C 18 7.00757575757576  17.962890625 7.09280303030303  17.888671875 7.16477272727273  C 17.814453125 7.23674242424242  17.7265625 7.27272727272727  17.625 7.27272727272727  L 6.375 7.27272727272727  C 6.2734375 7.27272727272727  6.185546875 7.23674242424242  6.111328125 7.16477272727273  C 6.037109375 7.09280303030303  6 7.00757575757576  6 6.90909090909091  L 6 6.18181818181818  C 6 6.08333333333333  6.037109375 5.99810606060606  6.111328125 5.92613636363636  C 6.185546875 5.85416666666667  6.2734375 5.81818181818182  6.375 6  L 17.625 6  C 17.7265625 5.81818181818182  17.814453125 5.85416666666667  17.888671875 5.92613636363636  Z M 19.388671875 14.4375  C 19.462890625 14.3655303030303  19.5 14.280303030303  19.5 14.1818181818182  L 19.5 4.72727272727273  C 19.5 4.62878787878788  19.462890625 4.54356060606061  19.388671875 4.47159090909091  C 19.314453125 4.39962121212121  19.2265625 4.36363636363636  19.125 4.36363636363636  L 1.875 4.36363636363636  C 1.7734375 4.36363636363636  1.685546875 4.39962121212121  1.611328125 4.47159090909091  C 1.537109375 4.54356060606061  1.5 4.62878787878788  1.5 4.72727272727273  L 1.5 14.1818181818182  C 1.5 14.280303030303  1.537109375 14.3655303030303  1.611328125 14.4375  C 1.685546875 14.5094696969697  1.7734375 14.5454545454545  1.875 14.5454545454545  L 19.125 14.5454545454545  C 19.2265625 14.5454545454545  19.314453125 14.5094696969697  19.388671875 14.4375  Z M 20.44921875 0.534090909090908  C 20.81640625 0.890151515151514  21 1.31818181818182  21 1.81818181818182  L 21 14.1818181818182  C 21 14.6818181818182  20.81640625 15.1098484848485  20.44921875 15.4659090909091  C 20.08203125 15.8219696969697  19.640625 16  19.125 16  L 1.875 16  C 1.359375 16  0.91796875 15.8219696969697  0.55078125 15.4659090909091  C 0.18359375 15.1098484848485  0 14.6818181818182  0 14.1818181818182  L 0 1.81818181818182  C 0 1.31818181818182  0.18359375 0.890151515151514  0.55078125 0.534090909090908  C 0.91796875 0.178030303030301  1.359375 0  1.875 0  L 19.125 0  C 19.640625 0  20.08203125 0.178030303030301  20.44921875 0.534090909090908  Z " fill-rule="nonzero" fill="#000000" stroke="none" transform="matrix(1 0 0 1 529 300 )" />
  </g>
</svg>