<?xml version="1.0" encoding="utf-8"?>
<svg version="1.1" width="20px" height="20px" viewBox="1043 601  20 20" xmlns:xlink="http://www.w3.org/1999/xlink" xmlns="http://www.w3.org/2000/svg">
  <path d="M 1053 581  A 3.5 3.5 0 0 0 1049.5 584.5A 3.5 3.5 0 0 0 1053 588A 3.5 3.5 0 0 0 1056.5 584.5A 3.5 3.5 0 0 0 1053 581Z M 1053 583  A 1.5 1.5 0 0 1 1054.5 584.5A 1.5 1.5 0 0 1 1053 586A 1.5 1.5 0 0 1 1051.5 584.5A 1.5 1.5 0 0 1 1053 583Z M 1057.29289321881 606.892893218813  L 1053 611.185786437627  L 1048.70710678119 606.892893218813  L 1047.29289321881 608.307106781187  L 1052.29289321881 613.307106781187  L 1053 614.014213562373  L 1053.70710678119 613.307106781187  L 1058.70710678119 608.307106781187  L 1057.29289321881 606.892893218813  Z " fill-rule="nonzero" fill="#999999" stroke="none" />
  <rect fill-rule="evenodd" fill="#999999" stroke="none" x="1052" y="587" width="2" height="25" />
  <path d="" stroke-width="2" stroke="#999999" fill="none" />
</svg>